<svg xmlns="http://www.w3.org/2000/svg" xmlns:xlink="http://www.w3.org/1999/xlink" viewBox="0 0 1301.03 513.78"><defs><style>.cls-1{fill:#b1b1b1;}.cls-2{fill:#bbb;}.cls-3{fill:#b5b5b5;}.cls-4{fill:#959595;}.cls-5{fill:#b8b8b8;}.cls-6{fill:#a0a0a0;}.cls-7{fill:#5d5d5d;}.cls-8{fill:#489ff7;}.cls-9{fill:#5e5e5e;}.cls-10{fill:#8d8d8d;}.cls-11{fill:#a6a6a6;}.cls-12{fill:#5f5f5f;}.cls-13{fill:#949494;}.cls-14{fill:#d93c27;}.cls-15{fill:#d93d28;}.cls-16{fill:#8e8e8e;}.cls-17{fill:#b6b6b6;}.cls-18{fill:#9b9b9b;}.cls-19{fill:#606060;}.cls-20{fill:#acadac;}.cls-21{fill:#9c9c9c;}.cls-22{fill:#969696;}.cls-23{fill:#b3b3b3;}.cls-24{fill:#7a7a7a;}.cls-25{fill:#7ba395;}.cls-26{fill:#adadad;}.cls-27{fill:#d2c3a1;}.cls-28{fill:#ddd;}.cls-29{fill:#a2a2a2;}.cls-30{fill:#a9a59d;}.cls-31{fill:#919191;}.cls-32{fill:#9ec2b0;}.cls-33{fill:#7f7f7f;}.cls-34{fill:#616161;}.cls-35{fill:#999998;}.cls-36{fill:#d5c6a2;}.cls-37{fill:#dfdfdf;}.cls-38{fill:#a8ccbd;}.cls-39{fill:#a4bcb2;}.cls-40{fill:#cfcfcf;}.cls-41{fill:#a9c8ba;}.cls-42{fill:#67aff8;}.cls-43{fill:#cbcbcb;}.cls-44{fill:#75b6f8;}.cls-45{fill:#d9d9d9;}.cls-46{fill:#72b5f8;}.cls-47{fill:#bfbfbf;}.cls-48{fill:#73ade9;}.cls-49{fill:#81bcf9;}.cls-50{fill:#4fa2f7;}.cls-51{fill:#8ac1f9;}.cls-52{fill:#78b8f9;}.cls-53{fill:#86bff9;}.cls-54{fill:#5494d7;}.cls-55{fill:#80bcf9;}.cls-56{fill:#5fabf8;}.cls-57{fill:#7bb9f9;}.cls-58{fill:#5caaf8;}.cls-59{fill:#84bef9;}.cls-60{fill:#7fbcf9;}.cls-61{fill:#7fbbf9;}.cls-62{fill:#87c0f9;}.cls-63{fill:#69b0f8;}.cls-64{fill:#55a1f0;}.cls-65{fill:#6db2f8;}.cls-66{fill:#85bef9;}.cls-67{fill:#70b3f8;}.cls-68{fill:#65aef8;}.cls-69{fill:#83bef9;}.cls-70{fill:#77b7f8;}.cls-71{fill:#71b5f8;}.cls-72{fill:#57a7f7;}.cls-73{fill:#a3a5a8;}.cls-74{fill:#77b7f9;}.cls-75{fill:#79b8f8;}.cls-76{fill:#6db3f8;}.cls-77{fill:#6eb3f8;}.cls-78{fill:#70b4f8;}.cls-79{fill:#64aef8;}.cls-80{fill:#7ab9f8;}.cls-81{fill:#68aff8;}.cls-82{fill:#499ff7;}.cls-83{fill:#5daaf8;}.cls-84{fill:#58a7f7;}.cls-85{fill:#73b6f8;}.cls-86{fill:#7b978e;}.cls-87{fill:#479ef7;}.cls-88{fill:#53a5f7;}.cls-89{fill:#6fb3f8;}.cls-90{fill:#6cb1f8;}.cls-91{fill:#6bb1f8;}.cls-92{fill:#56a6f7;}.cls-93{fill:#54a5f7;}.cls-94{fill:#54a4f7;}.cls-95{fill:#6fb0f3;}.cls-96{fill:#68b0f7;}.cls-97{fill:#60abf7;}.cls-98{fill:#60acf8;}.cls-99{fill:#62acf7;}.cls-100{fill:#bebebe;}.cls-101{fill:#61acf8;}.cls-102{fill:#55a6f8;}.cls-103{fill:#5ba9f7;}.cls-104{fill:#4da1f7;}.cls-105{fill:#5daaf7;}.cls-106{fill:#aaa;}.cls-107{fill:#5aa8f7;}.cls-108{fill:#5c6c66;}.cls-109{fill:#dadada;}.cls-110{fill:#acd3fb;}.cls-111{fill:#add3fb;}.cls-112{fill:#c1defb;}.cls-113{fill:#b2becb;}.cls-114{fill:#8b8b8b;}.cls-115{fill:#a4cffa;}.cls-116{fill:#f8d582;}.cls-117{fill:#fce98f;}.cls-118{fill:#d93c28;}.cls-119{fill:#909395;}.cls-120{fill:#2c2b28;}.cls-121{fill:#3c3c3c;}.cls-122{fill:#575d62;}.cls-123{fill:#a5a49f;}.cls-124{fill:#121518;}.cls-125{fill:#968f80;}.cls-126{fill:#9e9d98;}.cls-127{fill:#676767;}.cls-128{fill:#595959;}.cls-129{fill:#585858;}.cls-130{fill:#cbc9c2;}.cls-131{fill:#777;}.cls-132{fill:#818181;}.cls-133{fill:#878372;}.cls-134{fill:#e1e3e6;}.cls-135{fill:#696969;}.cls-136{fill:#b6b3b3;}.cls-137{fill:#787d83;}.cls-138{fill:#868686;}.cls-139{fill:#656565;}.cls-140{fill:#6fa5dc;}.cls-141{fill:#a2a19e;}.cls-142{fill:#6ba5df;}.cls-143{fill:#63a1e2;}.cls-144{fill:#5a93cc;}.cls-145{fill:#6aa5e0;}.cls-146{fill:#5ea2e7;}.cls-147{fill:#60a1e2;}.cls-148{fill:#5aa2ea;}.cls-149{fill:#5ba2eb;}.cls-150{fill:#999;}.cls-151{fill:#6d6f70;}.cls-152{fill:#b2aea8;}.cls-153{fill:#d4ccc0;}.cls-154{fill:#ada9a4;}.cls-155{fill:#9b9183;}.cls-156{fill:#9cb9ac;}.cls-157{fill:#b1aa9d;}.cls-158{fill:#82a193;}.cls-159{fill:#5d7c73;}.cls-160{fill:#ada8a0;}.cls-161{fill:#179231;}.cls-162{fill:#ded0a7;}.cls-163{fill:#8a8b8a;}.cls-164{fill:#9dc8b1;}.cls-165{fill:#a4a9a2;}.cls-166{fill:#73aae3;}.cls-167{fill:#68a7e7;}.cls-168{fill:#64a7eb;}.cls-169{fill:#63a6e9;}.cls-170{fill:#4da0f5;}.cls-171{fill:#5ca4ed;}.cls-172{fill:#61a2e4;}.cls-173{fill:#909090;}.cls-174{fill:#a4a4a4;}.cls-175{fill:#908f8f;}.cls-176{fill:#b6b2b1;}.cls-177{fill:#bab2b1;}.cls-178{fill:#f4e3e1;}.cls-179{fill:#8cc0f6;}.cls-180{fill:#168d30;}.cls-181{fill:#e0cfa5;}.cls-182{fill:#8b8d8b;}.cls-183{fill:#499a47;}.cls-184{fill:#e0d1b0;}.cls-185{fill:#253a3a;}.cls-186{fill:#eddcb3;}.cls-187{fill:#c8b58e;}.cls-188{fill:#a6956b;}.cls-189{fill:#49625d;}.cls-190{fill:#b4aaa9;}.cls-191{fill:#5c4d3e;}.cls-192{fill:#565757;}.cls-193{fill:#c9c8c2;}.cls-194{fill:#bdbab5;}.cls-195{fill:#34332e;}.cls-196{fill:#a39374;}.cls-197{fill:#0e0f13;}.cls-198{fill:#2c2c28;}.cls-199{fill:#515655;}.cls-200{fill:#9b8a78;}.cls-201{fill:#bbb4b3;}.cls-202{fill:#d4ccc1;}.cls-203{fill:#dad2c5;}.cls-204{fill:#848483;}.cls-205{fill:#837d75;}.cls-206{fill:#6a6a69;}.cls-207{fill:#797b79;}.cls-208{fill:#c8c0b4;}.cls-209{fill:#ccc5b8;}.cls-210{fill:#5f605f;}.cls-211{fill:#b6a999;}.cls-212{fill:#afa393;}.cls-213{fill:#d4cabf;}.cls-214{fill:#736b5f;}.cls-215{fill:#3c3831;}.cls-216{fill:#34312b;}.cls-217{fill:#83796c;}.cls-218{fill:#4b804a;}.cls-219{fill:#74a257;}.cls-220{fill:#dcd3a6;}.cls-221{fill:#a19063;}.cls-222{fill:#166e23;}.cls-223{fill:#5d6543;}.cls-224{fill:#618e2a;}.cls-225{fill:#606144;}.cls-226{fill:#6b7446;}.cls-227{fill:#379539;}.cls-228{fill:#9d9375;}.cls-229{fill:#7b775f;}.cls-230{fill:#575757;}.cls-231{fill:#d74431;}.cls-232{fill:#de5644;}.cls-233{fill:#22541e;}.cls-234{fill:#bbaf7f;}.cls-235{fill:#47923e;}.cls-236{fill:#3f9436;}.cls-237{fill:#648721;}.cls-238{fill:#595d3e;}.cls-239{fill:#665a3c;}.cls-240{fill:#877e62;}.cls-241{fill:#6f6a51;}.cls-242{fill:#79765e;}.cls-243{fill:#706e55;}.cls-244{fill:#5b6842;}.cls-245{fill:#ae996f;}.cls-246{fill:#9c8863;}.cls-247{fill:#595139;}.cls-248{fill:#b9a780;}.cls-249{fill:#585038;}.cls-250{fill:#5e5d3b;}.cls-251{fill:#4b4b2e;}.cls-252{fill:#524c31;}.cls-253{fill:#d34b39;}.cls-254{fill:#ac9b8b;}.cls-255{fill:#525245;}.cls-256{fill:#d54c3a;}.cls-257{fill:#eae3da;}.cls-258{fill:#b7aea2;}.cls-259{fill:#2a2d2e;}.cls-260{fill:#544e46;}.cls-261{fill:#177528;}.cls-262{fill:#62613c;}.cls-263{fill:#454126;}.cls-264{fill:#514b32;}.cls-265{fill:#5b5138;}.cls-266{fill:#6a645e;}</style><symbol id="map" data-name="map" viewBox="0 0 1301.03 513.78"><path class="cls-1" d="M1114.32,452.44c-3.77-4-1.81-9.28-3.09-13.84,2.83-7-.86-15.22-8.77-19.05-2.84-1.38-5.38-2.64-5.37-6.35a3.94,3.94,0,0,0-1.07-2.13c-4.09-5-8-10.13-12.41-14.86-2.3-2.49-3.47-6.65-8.08-6.2,0-2.83,1.75-5.37-.31-8.45l-2,6.87c-1.22.91-.61,3-2.59,3.65-6.83-2.71-8.88-10.18-14-15.64-.69,3.91,1,6.14,2.34,8.55,2.11,3.8,6.38,5.71,8.25,9.68.79,2.66,3,4.53,3.47,7.29,3.65-.61,7.27-3,9.8,1.43l-2.12.08h0c-1.89-1.67-3.68-1.26-5.57.13.21,1.24.41,2.31,1.46,3a6.91,6.91,0,0,0,.15.91,2.68,2.68,0,0,0,2,3h0c.29.37.59.73.89,1.1.55,2.72,2.68,4.49,4.24,6.5,4.16,5.39,4.75,11.16,2.86,17.43-.79-2.15.71-4.6-.76-6.72-2.71-.17-4.16,1.6-6,3.09-3.37,2.75-6.18,7.86-11.94,3.83-.92-.64-2.6-.2-3.93-.2q-9.37,0-18.76,0-18.46,0-36.94,0c-1.44,0-3-.42-4.33.9a12.69,12.69,0,0,0,.54,8.19c-2.72-.47-2-2.69-2.08-4.35-.32-14.08-.8-28.16-.74-42.24,0-8-1.78-15.77-2.05-23.69s1.21-8.37,9-8.15c7.14.2,13.57,2.81,20.36,4.12,5.63,1.08,9.49-.4,10.78-4.55,2.18,2.17,2.67,5.53,5.27,7.46,3.61-1.3,3.48-5.73,6.35-7.64l1.12,1.08,1,1h0c2,3.33,5.45,1.38,8.16,2.15.85,1.64,1.22,3.93,3.77,3.61,1.61-.2,1-1.68,1.06-2.73,5.46-.1,7.54-4.39,10.08-8.11,1.56.73.2,3,1.94,3.67,4-2.93,4.07-4.4.57-8.09l-2.39,1.65-.18-2.15c3.3-4.51,3.3-9.91,4-15.1.29-2.28-.66-3.95-3.35-3.76-2.29.16-5.35-1-5.58,3-.07,1.15,0,2.35-1.14,3.18-1.62.24-2.21-1-3-2.09-.38-1.84-3.91-1.39-3.08-3.94-5.39-2.12-5.83,3.34-8.48,5.55-.56-1.56-1.13-3.13-1.7-4.69,4.2-2.06,8.5-3.67,13.31-3.12l0-.05c.13,1.29-1.41,3,1.61,3.9.58-4.38,3.86-3.94,7.1-3.7,2.73.2,5.08-1.13,4.76-3.77-.27-2.27.75-3.95,1.32-6-3-1.16-5,2.59-7.77.82-2.54-1.6-4.59-.51-7.12,1.1-4.55,2.91-9.54,5.4-14.93.79-1.8-1.53-4.46-2.21-6.84-2.84-2.19-.57-4.14-.64-6.17,1.63-2.61,2.91-6.29,4.31-10,1.13-1.08-1.29-2.13-2.62-4-2.82-4-.36-7-3.27-10.81-4.27-1.05-3.16-1.79-6.7-6.56-5.47-1,2.51-.41,4.93-.24,7.34l-.52.43c-2.55-6.19-1.39-12.92-2.86-19.27a4.09,4.09,0,0,0,2.87-2.06l-1.72-2.76c.75-1.19,2-1.15,3.11-1.08,3.7.23,7.41.46,11.11.82,2.93.29,5.47-.1,7.57-3.68-4.78-1.66-9.76-2.5-13.44-.24-3.19,2-6.2,1.73-9.31,2.37a4.71,4.71,0,0,1-.36-.42c.24-1.3.42-2.63.75-3.91,1.61-6.12,6.94-8.08,12.26-4.4,9.72,6.72,19.45,7.5,30.12,1.72a26.82,26.82,0,0,1,24.4-1.18c6.81,3,14,5.93,21.31,5.73,8-.22,16.33,1.14,24.16-2.88,6.94-3.57,13.73-.39,17.42,7.09.35.69,1,1.59,1.61,1.74,5.2,1.25,8.95,4.82,13.13,7.77,3.6,2.54,8.82,2.12,12.49-.52a27.78,27.78,0,0,1,3.71-2.51c2.14-1.06,4.37-.71,4.52,1.9.2,3.42,3.17,4.39,4.55,6.57,4.61,7.28,13.2,7.42,19.48,11.63,4,2.68,8.93,1.11,13.59.62,5.73-.61,10.06-3,14.49-6.57,5.59-4.41,12.21-6.44,19.36-3.05a8.3,8.3,0,0,0,2.76,1.11c7.17.42,13.42,3.27,19.38,7,2,1.23,3.93,2.33,6.45,2.25,2.29-.08,3.1,1.55,3.14,3.65.09,4.47.86,9-.61,13.37-1,3,.2,5.85,1.12,8.19,2,5.16,1.86,12.06,9.88,13.38,2.68.43,3,4,1.87,6.82-.74,1.89-3.57,3.44-1.87,5.73,2.12,2.85,3.29,6.47,7.06,8.11,2.4,1.05,5.73,1.23,6.54,4.65v6.75c1.19,1.64,3.32.7,3.86,2.43-6.59-.11-9.65,1.33-9.8,5.54-.17,4.91-3.09,5-6.32,4.15-4.89-1.24-9.8-.9-14.72-.9-1.6-1-3.45-.87-5.22-1.18-4.65-.8-9.66-1.46-10.92-7.25-1-4.55-4-5.12-7.8-4.51-5.91,1.67-11.5,5.27-18.06,3-5.59-2.27-10.26-6.57-16.24-7.82a8.41,8.41,0,0,1-6.14-4.49c-2.64-5.32-7.06-9-10.82-13.45-3.19,2.1-5.45.78-8.08-2.44,0,4.63-3,4.22-6.12,4.36,3.62,3.54-1.66,1.94-1.54,3.58,2.58,1.75,2.38,5.46,5.07,7.11,2.57,2.11,2.9,6.36,6.86,7.13.88,3.9,6,3.35,7.22,6.86-1,5.46,3.43,7.89,6.59,11.59.37-2.81.26-6,3.49-6.35,3.55-.41,1.79,3.71,3.59,5,0,.61,0,1.22.07,1.82-1.2.86-2.55,1.6-2.62,4.4,7.08,4.45,15,2.77,22.78,1.76,1.21-.38,2.52-.61,3-2.06,1.35-1.63,2.69-3.26,4-4.88,2.21-1.45,3.41-4.06,5.94-5.13l1-1,0,0,2.8-1c0,.62-.09,1.23-.14,1.84-2.73,1.27-1.15,2.18.26,3.1,2.12,2.55,6.12,3.19,7,7l-.24.37.24-.36c11.15,2.15,22.47,2.79,33.74,3.82l.43.4a2.26,2.26,0,0,1-3.13,1.61c-8.19-2.45-16.71-1.76-25-2.76a23.08,23.08,0,0,0-3.89-.53c2.88,2.3,6.94.83,10,3.31s4.73,5.95,7.9,8.11c.7,1.56,1.19,3.27,3,4-.11,3.95,1.43,8.34-2.94,11.17-.06-.39-.11-.78-.16-1.17,1.26-2.69,2.75-5.35,1.36-9.08l-4.43,5c-2.18.51-2.63,2.23-2.86,4.1h0c-6.43.07-7.13,1.17-6.75,10.67l-4.26,2.28a5.2,5.2,0,0,0-2.93,3.21c-.66,2.83-2.77,3.62-5.22,3.64-2.88,0-4.69.83-5.1,4.08-.27,2.13-2.34,2.88-4.21,2.65-7.17-.86-12.81,3.44-19.23,4.91-.23,1.91-.4,3.36-.58,4.92-2.41,1.18-4.67,3-7.13,3.35-10.57,1.38-19.34,7.53-29.28,10.52-8.12,2.44-16.57,3.84-24.25,7.68-4.1.57-7.65-.17-9.87-4.11l-.12-2.89-.9-1.08v-.07c-.88-6.29-4.2-12.13-3.21-18.8a3.53,3.53,0,0,0-2.8-4.14c-9.84-9.69-14.95-24-29-29.06C1112.64,446,1114.5,449.12,1114.32,452.44Zm-106-143.85c-.07-3.48-2-3.65-4.15-1.92-1.89,1.51-.33,3.63.45,5,.92,1.6,1.53,4.86,4.84,2.87,1.15,0,2.62.24,2.68-1.35C1012.27,310.66,1010.42,309.47,1008.36,308.59Zm193.82,132.78c-.19-2.58,1.12-5.7-2.61-7.32-.47,2.64-.89,5.05-1.32,7.46a3.31,3.31,0,0,1-2,1.93c0-.66,0-1.32,0-2,.57-3,3.35-6,0-9l1.59-1.75c-3.58-1.31-3.47-4.34-3.64-7.39-.31-5.34,1.3-10.92-1.85-15.93-1.09-3-3.58-3.05-6.17-2.86a26.25,26.25,0,0,1-2.93-.46q-12.71-3.4-25.4-6.88c-2.5-.68-4.6-.49-5.73,2.25l-7,5a2.8,2.8,0,0,0-2.84,2.14l-1,1a1.58,1.58,0,0,0-.86.1c-.9.36-1,1.15-1.25,2-3.75,13.07-1.28,26.44-1.84,39.65-.14,3.21,2.88,4.5,5.25,4,7.35-1.63,14.82-1.46,22.2-2.27a91,91,0,0,1,15.83-.05c8.5.54,16.46,3.66,24.86,4.44,2.72.25,6,.32,6.39-3.08.39-3.6-2.8-3.9-5.6-3.92a8.51,8.51,0,0,1-.13-.86c1.79-.49,4.1.84,6.25-2.09h-12.87c2.52-1.79,5.5.32,6.6-2.54C1205.22,440.85,1203.5,441.68,1202.18,441.37Zm-176.88-13.8c3,3.19,6.2,4.47,10.61,2.69,6.1-2.46,12.39-4.44,18.58-6.67,2.65-1,5.3-1.94,7.86-3.12,1.62-.75,2.85-2,1.18-3.87.07-.78.52-1.57-.12-2.34q-13.85-16.53-27.66-33.1a3.41,3.41,0,0,0-2.27,2.43c-.87,1.13-1.67,2.33-3.13,2.81-.59-2.49-1.55-.73-2.19-.11a207,207,0,0,0-21.78,24.91c-1.35,1.83-3.32,4.61-.91,6.69a43.17,43.17,0,0,0,18,9.55Zm85.82-18.17c-3.68-3.46-3.89-3.46-5.66.25a11.52,11.52,0,0,0,4.82,2c0,10.55,5.57,18.67,11.52,27.41a56.4,56.4,0,0,0,11.71-22.7c1.64-5.95-2.44-12.55-8.52-14.34C1119.51,400.37,1113.36,403.66,1111.12,409.4Zm-33.43-23.81c3.94,4.73,4,4.74,6.28,1.55C1080,383.65,1080,383.65,1077.69,385.59Zm9.76,6.31c1.4,4.84,2.2,5.26,5.93,3.21C1091.94,393.31,1090.64,391.54,1087.45,391.9Zm14.73,10.45a9.28,9.28,0,0,0-4.39-3.25c-1.77,2-1,3.37.81,4.53C1100.06,404.58,1101.38,404.8,1102.18,402.35Zm-33.49-24.89c3.15,4.66,3.31,4.7,5.38,1.54C1072.65,377.77,1071.45,376,1068.69,377.46Zm-53.46-58.64c.52,3,1.56,4.41,4.66,4.08C1019.47,320.32,1018.82,318.56,1015.23,318.82Z"/><path class="cls-2" d="M2,164c-3.41-4.83-1.76-9.86-.39-14.77.61-2.14,3-2.42,4.92-3,11.76-3.6,22.86-8.76,33.75-14.4a8.25,8.25,0,0,0,1.45-1.26c0-3.21-2.27-4.9-4.28-6.5-4.15-3.32-1.56-8.06,2.62-8.89A153.29,153.29,0,0,1,89.6,113.1a2,2,0,0,1,.49.08c12.44,5.92,25.32,2.07,38,1.62,3.72-.13,7-2,10.27-3.56,4.33-2.13,8.71-4,13.69-4.25,3.87-.17,4.54-1.6,2.91-5.22-.14-.3-.31-.59-.46-.88-5.68-10.77-5.77-11.18,5.84-14.44,8.28-2.32,14.33-8.18,21.68-11.89,6.08-3.07,12-6.58,18.85-7.67l.23.19Q200.58,71,200,75l0,3a1.91,1.91,0,0,0-1,2c0,.33,0,.66-.07,1L198,82h0c-4.12,3.17-2.92,7.71-3,11.88-.19,8.11-3.6,12.2-11.26,14.36-4.72,1.32-9,4-14.29,4.92l2.56,1.73c-1.67.29-3.58-.62-5,1-2.41,0-4.75.21-6.86,2.23,2.94,1.77,5.37-1,7.88-.13,0,.31,0,.61,0,.91a2.14,2.14,0,0,0-2,1h-7.67c-.7,1.25.2,3-1.26,4-.19-1.09.32-2.32-.6-3.29a3.18,3.18,0,0,0-.91.34c-3.91,3.05-3.18,7.21-1.78,10.84a10.53,10.53,0,0,0,12.36,6.83c4.11-.91,8.32-1.82,12,.47,3,1.84,5.72,1.92,8.94,1.27,7.24-1.48,14.23-4.55,21.87-3.52l3,0a2.13,2.13,0,0,0,2,1l1,0c.74,1.14,1.92,1,3,1,.33,0,.65,0,1,0,.74,1.16,1.92,1,3,1,4.95,2.15,10,2.8,14.61-.51,4.41-3.19,9-2.82,13.76-1.85a18.27,18.27,0,0,0,2.95.35c6.06.22,8.39-3.27,7.1-9.28-2.28-10.66-9.71-14.48-19.44-15.66-1.59-3.68-4.8-1.57-7.26-2-6.14-1-11.54-2.49-14.49-9-2-4.4-.64-8.72-1.25-13l-2.8-5.08c.19-2.62-2.67-4.24-2.28-6.93l.29-4.88a2,2,0,0,0,.66-2.08,2.53,2.53,0,0,0,0-.91c1.5-2.27-2.4-4.77.29-7,.29,3.08,2.69,1.89,4.23,1.89,15.49.07,31,0,46.46,0h4.84A3.1,3.1,0,0,1,271,67.14c-.66,10.11,3.32,19.88,2,30.07-.47,3.73,0,7.32,5.11,8.11,2.14.33,2.69,2.58,2.77,4.78.48,14.51.15,28.92-5.11,42.74-1.23,3.21-.8,6.57-.88,9.87-.11,4.32-.09,8.65-.12,13-1.89-2.78-3.61.1-5.42.16-1.36-7.34-5.84-11.79-11.92-11.84-5.76-.06-10.89,4.5-12,10.67-.64,3.58.88,6.84,1.55,10.22-4.41,2.51-7.9-.86-11.68-1.95-8.07-2.34-15.09-7.52-23.47-9-3.93-.69-5.94-2.6-5.87-6.6.06-3.61-2.2-5.59-5.26-6.24a11.26,11.26,0,0,1-5.73-2.53,7.83,7.83,0,0,0-5.57-1.76c-15.95,0-31.91.34-47.84-.88-9.14-.71-18.21,1-27.35,1-35.29-.16-70.58-.07-105.87,0-1.94,0-4-.55-5.81.68C1.62,159.66,2.36,161.87,2,164Z"/><path class="cls-3" d="M685.61,52.11c10.21,1.85,16.06,8.3,18.9,17.91A3.65,3.65,0,0,0,701,72.7c-.06,1.62,2.34.9,2,2.72-3.23,1.73-7.21-.85-10.38,1.54-5.94-.83-11.54,1.56-17.41,1.83a43.43,43.43,0,0,0-16.9,4.2c-4.35,2-10.44,1.65-15.65,3,1.46-2,1-3.64-1-4.93,2.37.24,3.7-1.29,3.35-3.19-.6-3.35-2.87-5.36-6.79-5.43,1.14,3.75-2.6,1-3.46,2.73-1.89,3.78-5.72,4.32-9.27,4.05a4.71,4.71,0,0,0-4.76,2.69c-1.49,4-4.85,4.21-8,5.1-2-1.65-4.11-3.28-7-2h0c-2.32-2-1.62-5.22-2.56-7.38-1.76-1.09-3.67,0-4.57-.92-1-1.59,1.23-2.46-.19-3.61a10.86,10.86,0,0,1-2-.1c-3.66-.88-9.43-2.43-9.75-4.46-.81-5.22-5.2-7.2-7.14-11.07-1-1.91-2.32-2.46-4.38-2.48-11.44-.1-22.91.74-34.31-.91-.18-.85.36-2-1.22-2.56L535.28,54h-5.55c.15-2.48-.89-4.71-3.31-4.79-9.6-.32-18.53-4.87-28.26-4.22-2.59.17-4.94-.51-6.4-3,8.12-.23,16.13,1.1,24.18,1.77,8.56.72,16.88,3.17,25.5,3.23,6.21.05,7.9-2.38,6.33-9l-1.14-1.81c-.32-.4-.64-.8-1-1.19l0,0c-.29-.37-.58-.73-.88-1.09l0-.06c.38-3.33-.82-6.48-1.23-9.71-.15-1.19-.36-3.32-2.73-2.15-.31-2.41-2.17-2-3.76-2-3.45,0-6.9,0-10.35,0-1.14-5.32-3.78-6.37-9.84-4-.44-2.31-2.25-2-3.86-2L502.68,14c0-.3,0-.61,0-.92,9.86,0,19.94-1.24,29.55.33,15.23,2.49,30.41.8,45.58,1.73,5.54.34,10.86-.06,15.74-3,1.26,9.48,6,17.26,11.47,24.79,3-1.87,3.58-4.91,5.63-6.84a2.1,2.1,0,0,0,2,1c.46.85.93,1.69,1.4,2.55-2.06.9-4.06,1.61-5.08,3.68,3.15,1.89,6.06,4,9.74,1.83,2.29,1.92,5.14.48,7.65,1.3,8.6,2.8,14.22,8.82,19.37,16,3.09,4.33,7.71,7.4,10,12.7.86,2,4.92,2.4,7.71,2.72,3.93.44,8.32,2.14,11.61,1.47,5.54-1.13,12.19-.18,16.55-5.33,2.2-.64,4.92,1.93,6.75-1-.43-4.46-1.89-7.79-7.52-6.69C691.11,55.94,688.28,54.08,685.61,52.11ZM574.37,37A4.11,4.11,0,0,0,569,38.22c-.67.87.11,1.85,1.23,2.29C571.88,40,573.61,39.47,574.37,37Zm-16.32,7.95c4,0,4,0,4.12-4.4C560.52,42.3,557.76,41.74,558.05,44.91ZM597.2,28.23c-3.33-3.25-4.55-1.1-6.51.43C593.36,30.86,594.7,28.82,597.2,28.23ZM552.64,47.81c-3.24-1.17-4.81-.32-6.25,2.53C548.84,50.2,550.66,50.07,552.64,47.81Zm27-13c2.8.14,4.71,0,5.2-3.34C582.54,32,580.62,31.92,579.64,34.82Z"/><path class="cls-4" d="M2,164c.34-2.11-.4-4.32.55-6.42,1.81-1.23,3.87-.68,5.81-.68,35.29,0,70.58-.12,105.87,0,9.14,0,18.21-1.7,27.35-1,15.93,1.22,31.89.84,47.84.88a7.83,7.83,0,0,1,5.57,1.76,11.26,11.26,0,0,0,5.73,2.53c3.06.65,5.32,2.63,5.26,6.24-.07,4,1.94,5.91,5.87,6.6,8.38,1.48,15.4,6.66,23.47,9,3.78,1.09,7.27,4.46,11.68,1.95l7.18,13.82-3.36.19c-7.91-4.35-17-5.68-25-9.65a51.76,51.76,0,0,0-13.56-4.63c-4.07-.75-6.28-3.57-6.24-7.82,0-3-1.27-4.7-4.27-5.1a3.74,3.74,0,0,1-1.9-.52c-7.67-6.63-16.84-4.53-25.67-4.52q-81.84.06-163.67.08C7.41,166.74,4,167.4,2,164Z"/><path class="cls-5" d="M491.76,42c1.46,2.45,3.81,3.13,6.4,3,9.73-.65,18.66,3.9,28.26,4.22,2.42.08,3.46,2.31,3.31,4.79h-45c-7.11.9-14.54-2.16-21.41,1.84-.86.49-1.9-.12-2.64-.94C459,53,456.63,53,454.27,53q-24.7,0-49.4,0a7.66,7.66,0,0,1,1.34-5.67C413,37,420,26.68,426.64,16.23a6.29,6.29,0,0,1,6.6-3.29c4.85.53,9.87-1.14,14.6,1.08a16.88,16.88,0,0,1-3.48,0c-6.12-1.22-9.69,2.26-11.46,7.18A89.49,89.49,0,0,0,428,40.33c-1.07,8.59,3.22,11.44,11.67,9.33a163.68,163.68,0,0,1,28.75-4.75,53.82,53.82,0,0,0,15.38-2.84Z"/><path class="cls-6" d="M484.77,54h50.51c1.83,2,3.68.67,5.52,0,11.4,1.65,22.87.81,34.31.91,2.06,0,3.42.57,4.38,2.48,1.94,3.87,6.33,5.85,7.14,11.07.32,2,6.09,3.58,9.75,4.46a10.86,10.86,0,0,0,2,.1c1.42,1.15-.8,2,.19,3.61.9.88,2.81-.17,4.57.92.94,2.16.24,5.35,2.56,7.38-.82.58-1.21,1.16,0,1.74.89-.63,0-1.18,0-1.75,2.89-1.27,5,.36,7,2-1.35,1.45-.48,3.72-1.58,5.3-2.34-1.14-.53-3.73-2.37-4.93-1.52.53-3.71.07-4,2.62h-1c0-1.12.2-2.28-.95-3v0a1.77,1.77,0,0,0-2.1-1.91,35.58,35.58,0,0,0-11.4-5.9c-1.66-.45-3.31-1.5-3.57-3.19-.64-4.17-4.81-6.87-3.89-12.26-21.39,1.46-42.06-1-62.8-.53-1.42-2-2.89.07-4.33,0l-47.72,0c-1.83-.23-3.52-1-2.84-3.07A5.33,5.33,0,0,1,469.15,56c3.5-.06,6.68,1.14,10.33,3C479.69,55.56,482.62,55.29,484.77,54Zm45.05,3.7c-5.29-.72-6-.06-4.42,3.91C526.88,60.48,529.21,60.64,529.82,57.71Z"/><path class="cls-7" d="M1159.27,503.39c7.68-3.84,16.13-5.24,24.25-7.68,9.94-3,18.71-9.14,29.28-10.52,2.46-.32,4.72-2.17,7.13-3.35.18-1.56.35-3,.58-4.92,6.42-1.47,12.06-5.77,19.23-4.91,1.87.23,3.94-.52,4.21-2.65.41-3.25,2.22-4.05,5.1-4.08,2.45,0,4.56-.81,5.22-3.64a5.2,5.2,0,0,1,2.93-3.21c1.55.27,3.3-.57,4.6.76,1.33,4.62-.12,7.71-4.71,9.16-1.23.8-3.1,1.06-2.71,3.22a3.53,3.53,0,0,0-.15.91c-2,1.45-3.76,3.11-6.54,3.07a3.48,3.48,0,0,0-3.64,2.8c-2.78,3.55-7.89.95-10.83,4.08-3.13.59-5.7,2.88-9,3-2.13,0-3.92.36-3.92,3.06q-.12.45-.27.9a3.15,3.15,0,0,0-1.74,3.14,11.38,11.38,0,0,1-5.7,2.82c-11,1.21-20,8.07-30.32,11.11-4.15.66-8.11,2.15-12.38,2.48a7.09,7.09,0,0,0-5.71,3.4c-4,.82-7.94,2.77-12,.18-1-3.17-.53-7-4-9.08h0c.78-2.71-1.17-5.47.12-8.17v.07l.9,1.08.12,2.89C1151,504.84,1153.06,505.72,1159.27,503.39Z"/><path class="cls-8" d="M730.81,125.05c-.48,1.38-1,2.77-1.42,4.09,7,5,14,2.61,21.16-.31-1.61,5.75-4.29,10.62-2.58,16.21-2.88.82-4.39-.42-5.11-2.35-1.46-3.91-4.53-4.69-8.16-5a44.74,44.74,0,0,1-6.51-1.62c-2.16,8.4,2.59,16.4.84,24.63-3.53.72-5.09-.87-6.19-4-2.41-6.8-5.32-13.42-7.74-20.22-1.09-3.09-2.73-4.44-6.08-4.71a48.42,48.42,0,0,1-12.58-2.6c-1.59-.57-3-1.18-2.49-3s2-2.41,3.9-2c4.35,1,8.75,1.75,13.06,2.84,2.27.58,3.91.62,5.72-1.37,5.46-6,11.34-11.65,16.76-17.69,2.7-3,4.54-1.06,7.2.18l-8,13.85a1.68,1.68,0,0,0-1.06,2h0Z"/><path class="cls-9" d="M1002.27,444.57a12.69,12.69,0,0,1-.54-8.19c1.31-1.32,2.89-.9,4.33-.9q18.48,0,36.94,0,9.39,0,18.76,0c1.33,0,3-.44,3.93.2,5.76,4,8.57-1.08,11.94-3.83,1.82-1.49,3.27-3.26,6-3.09,1.47,2.12,0,4.57.76,6.72-1,4.52-5.56,5.35-8.36,7.95s-6.31,3.14-10.78,2.52c-8.46-1.17-17.19-.52-25.81-.56-10.44,0-20.89,0-31.34,0C1006.12,445.39,1004.08,445.71,1002.27,444.57Z"/><path class="cls-2" d="M250.84,198.9l3.36-.19,3.6,3.16,2.4-3.06.39,0,.4,0,2,0c4.09-1.8,7.92-4.27,12.7-4.37.23-3.37.72-6.29-.24-9.08-2.42-1.2-4.34.88-6.49.51q-.48,0-1,0a5.44,5.44,0,0,0-.19-.91l1.44-6.88c2.26,1.63,3.7-.58,5.49-1.15.12,4.93,3.33,9.3,2.47,14.47-.29,1.8,1.49,2.47,3.11,2.43,12.41-.3,24.83-.63,37.11-2.51,3.32-.51,6.41-2.65,9.51-4.23,1.21-.62,3.09-1.85,3.56-1.06,2.49,4.09,7.28,1.56,10.22,3.95,1.37,1.12,2.5.05,3.69-.34,1.51-.48,3.05-1.73,4.37.32-3.23,0-6,1.79-9,2.5-9.28,2.15-18.31,5.44-27.86,6.47a52.47,52.47,0,0,1-6.31.93c-10.24.3-20.14,2.63-30,5-3.61.88-6.89,1.88-10.25-.48-1.13-.79-3-1.08-3.65,0-2.46,4.27-5.46,2.12-8.37,1-1.81.88-3.22,2.51-5.39,2.41,1-2.35,4-2.75,4.9-4.9C253.16,200.84,251.47,200.16,250.84,198.9Zm78.73-8.64c-3.44-1.48-8.49.66-10.72,4.26C323.61,196.13,326.41,193.08,329.57,190.26Z"/><path class="cls-10" d="M311.87,198.87c9.55-1,18.58-4.32,27.86-6.47,3.06-.71,5.81-2.48,9-2.5h0c0,2.62,0,5.24,0,7.86-3.2,2.94-7.45,3.49-11.31,4.84-15.51,5.41-31.76,8-47.66,11.87-2.52.62-5.28.26-7.93.34-2.35-1.57-5.08,1.25-7.62-.83-1-2.56.1-4.83,1.74-6.69,7.64-3.49,16.93-.09,24-6.24C305.88,202.17,307,202,311.87,198.87Z"/><path class="cls-11" d="M484.77,54c-2.15,1.28-5.08,1.55-5.29,5.07-3.65-1.91-6.83-3.11-10.33-3A5.33,5.33,0,0,0,464.06,60c-.68,2.06,1,2.84,2.84,3.07a3,3,0,0,1-3.17,1c-15.19-3.85-30.67-1.15-46-2.07-1.49-.09-3,0-4.48,0-8.06-.06-8.65-.69-8.4-8.92q24.7,0,49.4,0c2.36,0,4.7-.05,6.45,1.89.74.82,1.78,1.43,2.64.94C470.23,51.85,477.66,54.91,484.77,54Z"/><path class="cls-12" d="M1073.24,388.43l2-6.87c2.06,3.08.26,5.62.31,8.45,4.61-.45,5.78,3.71,8.08,6.2,4.38,4.73,8.32,9.86,12.41,14.86a3.94,3.94,0,0,1,1.07,2.13c0,3.71,2.53,5,5.37,6.35,7.91,3.83,11.6,12.07,8.77,19.05l0-.06c.12-2.15-1.09-3.32-2.94-4-2.46-3.51-6.2-5.24-9.89-7.05-3.23-10-10.54-17.08-17.89-24.07-2.53-4.41-6.15-2-9.8-1.43-.42-2.76-2.68-4.63-3.47-7.29.23-.94.4-2.12,1.77-1.71C1073.56,394.35,1073.41,391.42,1073.24,388.43Z"/><path class="cls-13" d="M642.64,86c5.21-1.31,11.3-.92,15.65-3a43.43,43.43,0,0,1,16.9-4.2c5.87-.27,11.47-2.66,17.41-1.83,3.18.22,6.45-.38,9.57.41-1,5-3.47,6.44-8.25,7-4.35.46-9.42-1-13.28,2.53-4.21,1.92-8.67-.6-13,.85-2.5.84-4.94,1.5-7,3.26l-6.16,1.69c-3.22-5.82-7.9-3.23-12.08-2-1-1.28-.6-2.49-.73-3.62h0l1-1Z"/><path class="cls-14" d="M610.69,30.09c-2.05,1.93-2.68,5-5.63,6.84-5.47-7.53-10.21-15.31-11.47-24.79.65-5.46,2.84-9.87,8.5-11.58,5.93-1.79,10.18,1,13.77,5.38a18.07,18.07,0,0,1-.24,13C614.15,22.69,612.35,26.36,610.69,30.09ZM599.43,8c-1.53,5-.72,8.27,2.78,9.74,3.33,1.39,6.54,1,8.83-2.19,2.44-3.4,1.6-6.82-2.35-10.19C604.83,3.51,601.67,4.11,599.43,8Z"/><path class="cls-15" d="M1052,339.75c.57,1.56,1.14,3.13,1.7,4.69q.39,3,.76,6l-2.84,10.34c-1.08.62-1.25,1.71-1.45,2.78-.91.38-.93,1.2-1,2-2.87,1.91-2.74,6.34-6.35,7.64-2.6-1.93-3.09-5.29-5.27-7.46-2.48-5.49-5.54-10.8-5.46-17.13a15.25,15.25,0,0,1,.89-5.8l1.33-2.48C1040.07,335.3,1046,335.59,1052,339.75Zm-15.81,8.65c0,4.59,2.43,7,7,6.93,4.32,0,7.24-2.9,7.2-7a7.69,7.69,0,0,0-7.32-7.25C1038.92,341.12,1036.2,344,1036.22,348.4Z"/><path class="cls-16" d="M311.87,198.87c-4.89,3.1-6,3.3-11.85,2.18-7,6.15-16.34,2.75-24,6.24-1.64,1.86-2.7,4.13-1.74,6.69,2.54,2.08,5.27-.74,7.62.83-6.24,1.79-12.65.54-19,1.05,3.29-2,4.59-4.77,3.6-8.49-2.6-1.07-4.38.22-6.54,1.3.83,2.52-2.54,6.51,3,7.17-5.08,1.57-10.42.63-15.63,1.67-3.87.77-3.78-2.48-3.1-5.4a5.52,5.52,0,0,1,3.6-4.34c2.17.1,3.58-1.53,5.39-2.41,2.91,1.09,5.91,3.24,8.37-1,.62-1.07,2.52-.78,3.65,0,3.36,2.36,6.64,1.36,10.25.48,9.86-2.39,19.76-4.72,30-5A52.47,52.47,0,0,0,311.87,198.87Z"/><path class="cls-17" d="M610.69,30.09c1.66-3.73,3.46-7.4,4.93-11.2a18.07,18.07,0,0,0,.24-12.95c5.4-1.65,7.71-.81,10,3.68,3.88,7.43,4.21,7.62,13,6.59,2.36-.28,4.09.82,4.51,2.88.47,2.3,1.15,4.88-.68,7.06-.37-2.19.55-4.56-.88-7-6.63,2.77-13.57,3.58-21.12,4.52l2.8,2.58c-3.28,2.71-7.93,1.87-10.8,4.82A2.1,2.1,0,0,1,610.69,30.09Z"/><path class="cls-18" d="M604.68,90c.33-2.55,2.52-2.09,4-2.62,1.84,1.2,0,3.79,2.37,4.93,1.1-1.58.23-3.85,1.58-5.3,3.16-.89,6.52-1.11,8-5.1a4.71,4.71,0,0,1,4.76-2.69c3.55.27,7.38-.27,9.27-4.05.86-1.71,4.6,1,3.46-2.73,3.92.07,6.19,2.08,6.79,5.43.35,1.9-1,3.43-3.35,3.19-.32,0-.63,0-1-.08-.67-1-1.34-1-2,0-2.78,2.09-5,4.8-8.12,6.53-2.55,1.43-5.62-.79-7.95,1.41-2.41,1.41-3.46,4.22-6,5.59-4.33,2.33-8.09,2-11.84-1.57C604.7,91.92,604.69,90.94,604.68,90Z"/><path class="cls-19" d="M1114.32,452.44c.18-3.32-1.68-6.46-1-9.2,14.08,5.07,19.19,19.37,29,29.06,1,3.11,4.14,6.29-.23,9.27v0c-1.36-4.17-5.58-5.83-8-9.07-2.3-1.31-3.59-3.64-4.49-5.82-1.59-3.89-4.56-6.09-8-7.74A19,19,0,0,1,1114.32,452.44Z"/><path class="cls-20" d="M483.78,42.07a53.82,53.82,0,0,1-15.38,2.84,163.68,163.68,0,0,0-28.75,4.75c-8.45,2.11-12.74-.74-11.67-9.33a89.49,89.49,0,0,1,4.92-19.11c1.77-4.92,5.34-8.4,11.46-7.18a16.88,16.88,0,0,0,3.48,0c.71-.15.9,2.17,2,.34s2.54-1.71,3.91-.16c-1,2.17-3.92,3-4,5.86H436c.28,2.53.47,4.28.67,6-2-1-1.8.44-1.77,1.62.06,2.49.14,5-1.1,7.27l-2.86,4.15c-1,6.62,0,8.31,5.81,7.81,9-.79,18-2,27-3.51,3.73-.65,7.67.73,11.19-1.33ZM439.34,17.13c2.44,1,4.87,1.5,7.32.2C444.21,17.05,441.86,15.5,439.34,17.13Z"/><path class="cls-21" d="M612.71,31.05c2.87-2.95,7.52-2.11,10.8-4.82l-2.8-2.58c7.55-.94,14.49-1.75,21.12-4.52,1.43,2.46.51,4.83.88,7-2.86,3.59-7.21,4-11.14,4.45a13.08,13.08,0,0,0-8.84,4.48,1.75,1.75,0,0,0-2.06,2h0l-1,1h0l-1,1.07h0c-3.68,2.18-6.59.06-9.74-1.83,1-2.07,3-2.78,5.08-3.68C613.64,32.74,613.17,31.9,612.71,31.05Z"/><path class="cls-22" d="M662.55,100c.2,5.89,0,6.07-5.46,6.08-7.29,0-14.58,0-21.87,0-1.59,0-3.36.55-4.59-1.08.29-1.77-.34-3.64.12-4.53,10.08-3.53,20-3.72,29.93-3.82Z"/><path class="cls-18" d="M685.61,52.11c2.67,2,5.5,3.83,5.28,8.15,5.63-1.1,7.09,2.23,7.52,6.69-1.83,3-4.55.39-6.75,1-2.2-4.55-5.07-7.57-10.84-6-2.45.68-4.9-.49-5-3.39s-.52-6.6,3.93-7.35A13.16,13.16,0,0,1,685.61,52.11Z"/><path class="cls-23" d="M662.55,100l-1.87-3.33c-10,.1-19.85.29-29.93,3.82-.46.89.17,2.76-.12,4.53-1.86-2.12-.56-4.66-.91-7,6.45-1,10.54-4.55,12-11,.13,1.13-.29,2.34.73,3.62,4.18-1.19,8.86-3.78,12.08,2L660.66,91l-2.43,2.7c1,2,2.84,0,4.08,1A11.55,11.55,0,0,1,662.55,100Z"/><path class="cls-24" d="M705.65,111a3.84,3.84,0,0,1-3.69,2c-6.62.16-13.16-.15-19.25-3.2,0-2.26.23-4.68,3.1-4.77,6.43-.19,12.87-.06,18.92-.06C706.12,107.33,705.4,109.2,705.65,111Z"/><path class="cls-25" d="M214.09,62.07c-2.69,2.23,1.21,4.73-.29,7-1.25-.07-2.5,1-3.76,0-3.85.26-4,3.71-5.25,6.15-1,2-1.56,4.66-4.79,2.75l0-3c2-1.12,3.63-2.57,3.9-5,1.83-2.25,5.89-2.7,5.63-6.82A23.24,23.24,0,0,0,203,60a2.06,2.06,0,0,1-.2-.88l.08-1.14h0c2.79-1.92,5.24-4.47,8.87-4.85.72,2.47,3.29.42,4.63,2C217.65,58,216.39,60.17,214.09,62.07Zm-.68-1.58c1-1,.76-2,.07-3A2.11,2.11,0,0,0,213.41,60.49Z"/><path class="cls-26" d="M705.65,111c-.25-1.78.47-3.65-.92-6-6.05,0-12.49-.13-18.92.06-2.87.09-3.08,2.51-3.1,4.77-6.2-1.42-2.12-5.43-2.7-8.54,2.22.41,1.26,2.12,2.21,3,2.26-3.43,5.8-3.54,9.28-3.12,4.54.54,7.45-.67,7.42-5.88C706.64,100.2,708.24,104.06,705.65,111Z"/><path class="cls-27" d="M502.72,13.09c0,.31,0,.62,0,.92-3.23,2-6.81,1.07-10.2,1-6.53-.2-13.13,1.08-19.59-.79q2.4-4,4.82-8.09c1.6,3.91,5.68,1.05,8,2.93-1.66,2-4,3.18-7.07,4.81H497.2c-6.3-4.61-6.3-4.61-11.49-4.82,1.75-1.55,3.81-.42,5.67-.73,2.49-.42,5.72,1.36,7.36-2.07C500.72,8.13,499.81,11.72,502.72,13.09Z"/><path class="cls-28" d="M641.69,87c-1.43,6.45-5.52,10-12,11-.41-1.74,2-2.13,1.82-3.75-3.32-.22-1.19-3.18-2.47-4.7-1.91-1.15-4.28-.28-6.5-.67,2.33-2.2,5.4,0,7.95-1.41,3.1-1.73,5.34-4.44,8.12-6.53h2c.32,0,.63.07,1,.08,2.06,1.29,2.49,2.91,1,4.93h0l-1,1Zm-8.51,5.12c1.52-2,6.71.07,6.09-5.35C636.27,88.07,632.84,87.75,633.18,92.12Z"/><path class="cls-29" d="M680.64,86.86c3.86-3.52,8.93-2.07,13.28-2.53,4.78-.52,7.26-1.94,8.25-7-3.12-.79-6.39-.19-9.57-.41,3.17-2.39,7.15.19,10.38-1.54.35-1.82-2.05-1.1-2-2.72A3.65,3.65,0,0,1,704.51,70c1.93,5.23,1.84,10.26-1,15.24a67.24,67.24,0,0,0-3.14,7.53c-1.84-7.76-1.84-7.75-9.91-6.9C687.2,86.24,683.91,86.54,680.64,86.86Z"/><path class="cls-30" d="M472.89,14.19c6.46,1.87,13.06.59,19.59.79,3.39.1,7,1,10.2-1l10.33.07c1.61,0,3.42-.33,3.86,2l-.13.09c-5.2-1.19-10.4-.2-15.61-.14-12.07.14-24.14,0-36.2.06-1.74,0-3.69-.65-5.14,1-1.63-3.08.94-2.84,2.53-2.94,3.15-.18,6.32-.07,9.48-.09Z"/><path class="cls-31" d="M1257.09,468.35c4.59-1.45,6-4.54,4.71-9.16-1.3-1.33-3-.49-4.6-.76l4.26-2.28c-.38-9.5.32-10.6,6.75-10.67,0,.66,0,1.32,0,2-1.41.32-2.79-1-4.2-.16-2.07,6.31-1.89,6.83,1.06,8.34,3.76,1.92,4.84-.68,6.1-3.2-.16,5.34-.6,5.74-6.39,5.9-2.68,3,1.46,9.43-5.38,10.22Z"/><path class="cls-32" d="M471.8,14c-3.16,0-6.33-.09-9.48.09-1.59.1-4.16-.14-2.53,2.94,0,.33,0,.65.09,1L459.81,20l-10,.11c0-2.82,3-3.69,4-5.86C459.76,12.17,465.78,12.7,471.8,14Z"/><path class="cls-33" d="M1142.14,481.57c4.37-3,1.18-6.16.23-9.27a3.53,3.53,0,0,1,2.8,4.14c-1,6.67,2.33,12.51,3.21,18.8-1.29,2.7.66,5.46-.12,8.17C1144.69,496.56,1144.43,488.78,1142.14,481.57Z"/><path class="cls-34" d="M1271.15,452.44c-1.26,2.52-2.34,5.12-6.1,3.2-3-1.51-3.13-2-1.06-8.34,1.41-.81,2.79.48,4.2.16.69,1.18,1.85,1,2.94,1l.13,3.08A2.48,2.48,0,0,1,1271.15,452.44Z"/><path class="cls-28" d="M1080.49,403.39c7.35,7,14.66,14,17.89,24.07-3.28-1.64-3.45-5.42-5.45-8-4.44-5.73-9.85-10.53-14.56-16Z"/><path class="cls-35" d="M485.73,9c-2.34-1.88-6.42,1-8-2.93L478.82,5c6,1.42,12,2,18-.09l1.9,1.31c-1.64,3.43-4.87,1.65-7.36,2.07-1.86.31-3.92-.82-5.67.73Z"/><path class="cls-36" d="M496.84,4.91c-6,2.08-12,1.51-18,.09a12.13,12.13,0,0,1,5.94-2.91c2.25,1.59,4.54,1.41,6.86.17C493.47,2.92,495.38,3.48,496.84,4.91Z"/><path class="cls-37" d="M1224.22,485.39c3.3-.08,5.87-2.37,9-3l7.91-.06,2.1.05c-2.64,2.36-6.15,2.13-9.26,2.72a35.33,35.33,0,0,0-13.56,5.32l-.38-1.11q.15-.45.27-.9Z"/><path class="cls-38" d="M203,60a23.24,23.24,0,0,1,6.53,3.14c.26,4.12-3.8,4.57-5.63,6.82-1.78-.81.38-2.29-.56-3.32l-2.25.45-.23-.19C203,65,203,62.5,203,60Z"/><path class="cls-39" d="M207,34.07c1.28,2.85-3.09,6.27.9,8.85l.28.37a1.52,1.52,0,0,0-.22.69c-2.93.08-1.64,2.53-2.2,3.94-1.7.3-2.83,1.1-2.64,3l-.94,0c.13-5.7,2.47-11.17,1.84-17A2.39,2.39,0,0,0,207,34.07Z"/><path class="cls-40" d="M1299,401.72c-.54-1.73-2.67-.79-3.86-2.43v-6.75c3.32,5,7.61,9.63,5.11,16.44a4.59,4.59,0,0,1-2,2.65c0-.36-.06-.73-.1-1.09C1299.61,407.71,1299.32,404.72,1299,401.72Z"/><path class="cls-41" d="M202.16,51l.94,0,.94,2.43c1.81-1.72,4.63-1,6.08-3.21a3.32,3.32,0,0,1,.67-.23c.34,1,.68,2.11,1,3.17-3.63.38-6.08,2.93-8.87,4.85C202.88,55.62,201.67,53.4,202.16,51Z"/><path class="cls-42" d="M313,157.35c1.32-2.31,3.25-2.42,4.71-3.37a7.24,7.24,0,0,1,2.95,4.58C317.54,161.73,315.51,159.12,313,157.35Z"/><path class="cls-43" d="M1164.18,512.3a7.09,7.09,0,0,1,5.71-3.4c4.27-.33,8.23-1.82,12.38-2.48a3.5,3.5,0,0,1-3,2.31C1174.07,509.18,1169.25,511.26,1164.18,512.3Z"/><path class="cls-44" d="M285.76,166.85c.88,5.38.28,6.09-5.28,6.36C280.86,170,282.08,167.76,285.76,166.85Z"/><path class="cls-45" d="M1244.05,478.35a3.48,3.48,0,0,1,3.64-2.8c2.78,0,4.57-1.62,6.54-3.07.42,3.09-2.1,4.22-4.09,4.64-2.48.53-4,2-5.77,3.44l-.39-.33C1244,479.61,1244,479,1244.05,478.35Z"/><path class="cls-46" d="M298.69,165.05c-2.35,2.14-4.18,4.36-7.88,2.37C292.87,164.31,294.93,162.79,298.69,165.05Z"/><path class="cls-1" d="M1298.18,410.54c0,.36.07.73.1,1.09-.32.38-.59,1-1,1.09-5.15.86-7.49,4.46-8.92,9l-.43-.4.31-5.59C1290.82,412.53,1295.08,412.64,1298.18,410.54Z"/><path class="cls-47" d="M1029.36,341.69c-3-1.92-6-3.79-9.89-3.16a3.65,3.65,0,0,1-3.37-1.59l.42-.5c4.48.2,9.06.05,12.8,3.2a8,8,0,0,1,.19.85Z"/><path class="cls-48" d="M1003.42,300.76l1.72,2.76a4.09,4.09,0,0,1-2.87,2.06l-2.7-4.43c.38-1.62,1.65-1.92,2.53-2.62a4.71,4.71,0,0,0,.36.42Z"/><path class="cls-49" d="M401.63,116.19c1.65-2.2,3.31-3.18,5.64-3C407.17,117.19,405.9,117.93,401.63,116.19Z"/><path class="cls-50" d="M309.89,162.67c-3.08,0-5.55,2.14-7.81-1.22C304.74,159.74,307.09,158.07,309.89,162.67Z"/><path class="cls-51" d="M480.72,81.73c-1.21-1.41-1.43-2.74.1-3.4s3.21-2.12,4.79.38C484.58,80.77,482.47,81,480.72,81.73Z"/><path class="cls-52" d="M357.92,137.29c-.1-3.08,2.65-2.91,3.92-4.14,1.25.5,2.15,1.4,1.5,2.27C362.09,137.11,360.35,138.23,357.92,137.29Z"/><path class="cls-53" d="M975.6,273.14c3.5-.49,3.51,2.74,5.84,3.58C977.59,278.49,976.68,277.87,975.6,273.14Z"/><path class="cls-54" d="M1029.51,340.49a8,8,0,0,0-.19-.85c.06-1.13-.13-2.57,1.37-2.77,2.46-.33,2.49,2.2,3.63,3.43l-1.33,2.48a.89.89,0,0,1-.53-.13A3.35,3.35,0,0,0,1029.51,340.49Z"/><path class="cls-55" d="M781.29,147.16c-2.24,2.08-4,1.06-6-1C777.81,143.81,779.48,146.08,781.29,147.16Z"/><path class="cls-56" d="M605,115.48c-2.77,3.06-3.37,3.08-6.28.48C600.61,114.13,602.54,114.7,605,115.48Z"/><path class="cls-44" d="M509.46,119.88c-2.65,2.59-4.52,2.79-6.76.57C504.65,118.14,506.58,118.77,509.46,119.88Z"/><path class="cls-57" d="M665.65,120.63c-3.42,1.46-5.35,2-7.31-.75C660.75,118.51,662.61,118.47,665.65,120.63Z"/><path class="cls-58" d="M574.55,115.75c2.28-1.44,4.12-.88,6.19-.69C579,118.65,577.81,118.77,574.55,115.75Z"/><path class="cls-59" d="M375.73,129.52c-2.69,2.38-4.34,3.71-7.24,2C370.42,129.29,372.07,128.09,375.73,129.52Z"/><path class="cls-60" d="M959.15,256.13c2.47.23,3.38,2.27,4.74,3.8-1,1.3-2,1.91-3.25.6S957.41,258.43,959.15,256.13Z"/><path class="cls-51" d="M923.25,224.83c2.71.23,3.76,1.79,4.31,4.36C923.38,228.8,923,228.37,923.25,224.83Z"/><path class="cls-61" d="M462,126.73c-2.24,1.47-4,1.58-5.91.65C458.23,124.11,458.51,124.06,462,126.73Z"/><path class="cls-62" d="M950.11,247.56c2.22,1.65,5,2.34,3.54,6.43C951.87,252,949.24,251.21,950.11,247.56Z"/><path class="cls-63" d="M888.74,200.63c-3.67,1.05-4.7-.59-5.6-3.39C886.18,196.69,887.36,198.16,888.74,200.63Z"/><path class="cls-64" d="M274.73,176.87c-1.79.57-3.23,2.78-5.49,1.15l.15-2.18c1.81-.06,3.53-2.94,5.42-.16C274.78,176.08,274.76,176.48,274.73,176.87Z"/><path class="cls-65" d="M451.54,92.06c-.25,4.44-.94,4.89-4.79,3.56C447.26,93.22,449.53,93.3,451.54,92.06Z"/><path class="cls-66" d="M988.28,287.75c-2.35-1.91-4.45-2.78-4.79-5.49C987.37,282.47,987.39,282.49,988.28,287.75Z"/><path class="cls-67" d="M550.57,117.33c1.93-3,3.84-2.61,6.16-1.78C555.6,119.23,553.35,118,550.57,117.33Z"/><path class="cls-68" d="M463.9,88.47c-2.76,2.75-2.76,2.75-6.24,2.44C458.85,88.18,460.72,87.57,463.9,88.47Z"/><path class="cls-46" d="M682.35,122.28c2.66-.5,4.64-.83,6.15,1.46C684.66,125.34,684.66,125.34,682.35,122.28Z"/><path class="cls-69" d="M485.69,122.26c-2.61,2.83-4.51,3.63-6.92.5C481,121.32,482.93,121.7,485.69,122.26Z"/><path class="cls-70" d="M431.56,131.44c1.92-3.19,3.95-2.42,6.34-2.33C436.66,133.15,434.31,131.8,431.56,131.44Z"/><path class="cls-71" d="M330,150c-.57,2.42-2.71,2.55-4.48,3.29C325.2,149.34,325.94,148.79,330,150Z"/><path class="cls-63" d="M474.77,84.23a10.13,10.13,0,0,1-5.63,2.35C470,82.71,471.61,82,474.77,84.23Z"/><path class="cls-72" d="M764.64,141.21a13.58,13.58,0,0,1,5.58,1.42C767.25,145.52,766.52,145.36,764.64,141.21Z"/><path class="cls-73" d="M491.62,2.26c-2.32,1.24-4.61,1.42-6.86-.17C487.13-1.39,489.39.05,491.62,2.26Z"/><path class="cls-74" d="M402.84,136.82c-2.25,2.13-2.25,2.13-5.55,1.78C398.66,135.76,398.66,135.76,402.84,136.82Z"/><path class="cls-75" d="M653.28,119.87c-2.86,1.1-4.84,1.79-6.57-1.2C649.08,117.43,651,117.14,653.28,119.87Z"/><path class="cls-76" d="M435.52,101.94c.68-3.35,2.67-3.49,5.22-4.71C440.71,101.43,438.5,101.51,435.52,101.94Z"/><path class="cls-77" d="M379.68,125.62l4.49-2.44c1.19.76,2.13,1.8.68,2.61S381.83,128.83,379.68,125.62Z"/><path class="cls-78" d="M996.23,295.61c-3.22-.58-4.44-2-3.61-5.27C995.1,291.24,996.23,292.71,996.23,295.61Z"/><path class="cls-33" d="M1134.16,472.48c2.41,3.24,6.63,4.9,8,9.07C1138.87,479.07,1135.18,477,1134.16,472.48Z"/><path class="cls-79" d="M347.16,142.2c1.1-2.44,2.73-3.6,5.49-2.85C351.77,142.7,349.43,142.45,347.16,142.2Z"/><path class="cls-80" d="M391.2,139c-1.6,3.23-3.55,3.09-6.25,2.5C386,138,388.35,138.94,391.2,139Z"/><path class="cls-63" d="M496.07,71.73C494.93,76,494.93,76,491,75.31,491.67,73,493.62,72.75,496.07,71.73Z"/><path class="cls-78" d="M622.91,117.41c2.2-2.29,4-2.28,6.13.16C626.79,119.52,625,119.24,622.91,117.41Z"/><path class="cls-81" d="M972.58,268.49c-4.16.71-4.37.53-4.72-3.5C970.36,264.64,970.86,267,972.58,268.49Z"/><path class="cls-33" d="M1148.25,503.4c3.43,2.11,3,5.91,4,9.08C1149.11,510.23,1149,506.66,1148.25,503.4Z"/><path class="cls-82" d="M473.19,125.06c-2.05,1.43-3.61,1-5.39.45C469.83,122.52,470.07,122.5,473.19,125.06Z"/><path class="cls-63" d="M420.31,132.24c2.34-.57,4.07-1.46,5.93.07C422.62,135.39,422.62,135.39,420.31,132.24Z"/><path class="cls-42" d="M935.24,237.64c-1.62-1.5-3.54-2.1-3.52-4.31C935.61,233.23,936.07,233.72,935.24,237.64Z"/><path class="cls-83" d="M419.52,108.67c-2.14,2.27-3.57,3.78-6.57,2.3C414.53,108.68,416.16,107.75,419.52,108.67Z"/><path class="cls-84" d="M502,69.68c1.46-2,3.41-1.87,5.06-3C507,70.47,505.72,71.14,502,69.68Z"/><path class="cls-68" d="M873.81,190.24c2.29,1.09,4.21,1.84,3.77,5.12C875.48,194.23,873,194.16,873.81,190.24Z"/><path class="cls-65" d="M792.57,151.38c-2.86,1.79-4.45,1.31-5.27-2C789.76,148.39,791.14,149.42,792.57,151.38Z"/><path class="cls-85" d="M520.88,119.26c-1.56,2.18-3.24,1.9-5.27.72C517.82,117.5,517.82,117.5,520.88,119.26Z"/><path class="cls-77" d="M640.35,118.48a6.53,6.53,0,0,1-5.67,0C637.34,115.33,637.4,115.33,640.35,118.48Z"/><path class="cls-86" d="M210.79,50a3.32,3.32,0,0,0-.67.23l-.29-.26c-2.25-1.62-2.25-3.61-1-5.81l2.17-.2,0,0,.1,2.28Z"/><path class="cls-87" d="M569.24,116c-2.35,2.3-4,2.57-5.91.09C565.19,114.37,566.8,114.65,569.24,116Z"/><path class="cls-77" d="M819.61,163.4c2.7-1,4.61-.87,6,2C822.92,166.44,821.22,165.71,819.61,163.4Z"/><path class="cls-88" d="M339.27,153.69c2.87-4.09,2.87-4.09,5-1.15Z"/><path class="cls-89" d="M616.28,115.66c-2.27,3-2.56,3-4.73,0A3.69,3.69,0,0,1,616.28,115.66Z"/><path class="cls-90" d="M423.53,106.22c2.15-2.44,3.86-3.17,6.52-2.68C428.67,106.19,426.91,106.86,423.53,106.22Z"/><path class="cls-91" d="M940.93,241c3.27-.72,3.85,1.16,4.49,3.37C942.53,245.16,941.62,243.53,940.93,241Z"/><path class="cls-92" d="M857,182.07c-1.93-.17-4.24.2-4.49-2.9C854.82,179.17,856.64,179.43,857,182.07Z"/><path class="cls-93" d="M379.42,141.87c-2.27,3.12-3.76,3.57-5.74,1.49C375,141,376.72,142,379.42,141.87Z"/><path class="cls-94" d="M539.26,118.26c2.58-2.67,2.58-2.67,5.26-.34C543,119.28,541.41,119.12,539.26,118.26Z"/><path class="cls-62" d="M913.39,217.84c3,.17,4.11,1.45,4,4.14C914.83,222,913.39,221.07,913.39,217.84Z"/><path class="cls-46" d="M799.05,152.76l5,2.07c-1.22,2.71-3,1.48-4.53,1S798.55,154.16,799.05,152.76Z"/><path class="cls-63" d="M903.63,211c3.86,1,3.86,1,3.48,5C906.2,213.52,903.12,214.32,903.63,211Z"/><path class="cls-42" d="M396.85,119.68a5.94,5.94,0,0,1-4.87,2.56C392.15,118.77,392.64,118.51,396.85,119.68Z"/><path class="cls-95" d="M514.62,63.09c1.44.12,2.91-1.94,4.33,0-1.05,2.56-3.24,2.33-5.07,2.73C512.72,64,514.36,63.88,514.62,63.09Z"/><path class="cls-96" d="M898.65,207.37c-4.14-.63-4.14-.63-4.92-3.33C896.07,203.66,897.26,204.82,898.65,207.37Z"/><path class="cls-97" d="M831.63,167.26c1.73,1,3.54,1.23,4.37,3.09C832.7,171.51,832.58,171.43,831.63,167.26Z"/><path class="cls-63" d="M332.54,154.69c-1.58,1.21-3.21,2.21-5.58,1.58C328.43,153.21,330.46,153.76,332.54,154.69Z"/><path class="cls-98" d="M533,118.21a6.3,6.3,0,0,1-6.23.13C529,117,530.49,115,533,118.21Z"/><path class="cls-99" d="M842.59,172.91c1.86.54,4.22.56,3.95,3.48-1.69,1.26-2.8-.07-4-.54C842.53,174.87,842.56,173.89,842.59,172.91Z"/><path class="cls-65" d="M413.7,133.34c-.08,3.82-2.44,2.77-5,3C410,134.17,411,132.88,413.7,133.34Z"/><path class="cls-100" d="M1012.13,331.84l-6.72-6.21,1.06,0c2.51,1.47,5.39,2.54,6.15,5.85Z"/><path class="cls-81" d="M349.86,149.66c1.92-2.25,3.46-3,5.87-1.79C353.47,149.91,353.47,149.91,349.86,149.66Z"/><path class="cls-101" d="M341.39,143.53c-1.3,3.76-3.17,3.72-5.63,4.34C336.62,144.47,338.76,144.82,341.39,143.53Z"/><path class="cls-102" d="M591.53,117.73c-1.44-.15-3.37.92-3.95-1.58.84-2.17,2.67-1.11,4.13-1.24Z"/><path class="cls-103" d="M361.73,147c1.71-2.59,3.16-2.7,5.07-1.77C366,147.89,364.32,147.54,361.73,147Z"/><path class="cls-104" d="M867.88,188.16c-2.68.19-3.66-1.3-5.81-1.77C865.27,184.25,866.4,185.77,867.88,188.16Z"/><path class="cls-105" d="M753.36,138.51c2-1.34,3.18,0,5.2,1.12C756,141,754.6,140.77,753.36,138.51Z"/><path class="cls-50" d="M496.16,121.34c-1.32,1.48-2.71,2.11-4.66.49C493.12,120.12,494.67,120.85,496.16,121.34Z"/><path class="cls-28" d="M1074.25,406.58c-1-.67-1.25-1.74-1.46-3,1.89-1.39,3.68-1.8,5.57-.13C1076.2,403.46,1074,403.46,1074.25,406.58Z"/><path class="cls-104" d="M813.58,158.75a1.72,1.72,0,0,1,.86,2c-1.8.65-3.24-.92-5-.81l-.05,0a3.27,3.27,0,0,1,2.08-2h0C811.94,158.81,812.72,158.88,813.58,158.75Z"/><path class="cls-31" d="M1271.26,451.54l-.13-3.08,3-3c0,.39.1.78.16,1.17Z"/><path class="cls-47" d="M1016.1,336.94a5.53,5.53,0,0,1-4-5.1l.49-.4,3.9,5Z"/><path class="cls-106" d="M1257.09,468.35l2.29.21c-1.7,1-3,2.61-5,3C1254,469.41,1255.86,469.15,1257.09,468.35Z"/><path class="cls-107" d="M671.14,121.53c2.15-1,3.4-1.22,4.54.47C674.07,123.6,672.93,122.92,671.14,121.53Z"/><path class="cls-87" d="M448.55,128.13c-1.27,1.13-2.53,2.38-4.4.6C445.49,127.13,447,127.59,448.55,128.13Z"/><path class="cls-2" d="M348.82,197.76c0-2.62,0-5.24,0-7.86C350.25,192.51,350.63,195.13,348.82,197.76Z"/><path class="cls-108" d="M207,34.07a2.39,2.39,0,0,1-3,0l1.37-3.15A3.48,3.48,0,0,1,207,34.07Z"/><path class="cls-109" d="M1277.24,435.43c-1.82-.72-2.31-2.43-3-4C1276.73,431.64,1277.3,433.3,1277.24,435.43Z"/><path class="cls-110" d="M809.48,159.94c1.72-.11,3.16,1.46,5,.81C812.35,163.13,810.88,161.78,809.48,159.94Z"/><path class="cls-111" d="M591.53,117.73l.18-2.82c1.12.07,2,.45,1.74,1.79C593.26,117.77,592.39,117.79,591.53,117.73Z"/><path class="cls-1" d="M1108.27,434.51c1.85.71,3.06,1.88,2.94,4C1109.63,437.64,1108.3,436.55,1108.27,434.51Z"/><path class="cls-112" d="M842.59,172.91c0,1-.06,2-.1,2.94-.75-.09-1.64-.1-1.63-1.13S841.67,173.19,842.59,172.91Z"/><path class="cls-113" d="M1029.51,340.49a3.35,3.35,0,0,1,3,2.16c-1.14,0-2.3.09-3.1-1Z"/><path class="cls-114" d="M1220,489.35l.38,1.11c-.34,1.05-.66,2.14-2.12,2A3.15,3.15,0,0,1,1220,489.35Z"/><path class="cls-110" d="M811.51,157.9a3.27,3.27,0,0,0-2.08,2c-1.28-.83-.71-1.69.08-2.38A1.15,1.15,0,0,1,811.51,157.9Z"/><path class="cls-28" d="M1076.37,410.47a2.68,2.68,0,0,1-2-3A3.08,3.08,0,0,1,1076.37,410.47Z"/><path class="cls-45" d="M1243.23,482.42l-2.1-.05,2.85-2.14.39.33Z"/><path class="cls-39" d="M211.05,43.91l-2.17.2h0l-.73-.81-.28-.37C209.45,41.62,210.3,42.6,211.05,43.91Z"/><path class="cls-3" d="M602.72,87c1.15.74,1,1.9.95,3C602.6,89.2,602.68,88.07,602.72,87Z"/><path class="cls-3" d="M600.61,85a1.77,1.77,0,0,1,2.1,1.91Z"/><path class="cls-3" d="M604.68,90c0,1,0,2,0,2.94-1.09-.71-1.1-1.81-1.05-2.93Z"/><path class="cls-3" d="M620.67,37a1.75,1.75,0,0,1,2.06-2A3.8,3.8,0,0,1,620.67,37Z"/><path class="cls-39" d="M211.18,46.22l-.1-2.28C212.22,44.65,211.94,45.43,211.18,46.22Z"/><path class="cls-110" d="M813.58,158.75c-.86.13-1.64.06-2.07-.86A2.12,2.12,0,0,1,813.58,158.75Z"/><path class="cls-115" d="M731.56,123.9a1.68,1.68,0,0,1,1.06-2C732.57,122.76,732.45,123.54,731.56,123.9Z"/><path class="cls-28" d="M1077.27,411.58c-.3-.37-.6-.73-.89-1.1C1076.67,410.85,1077,411.21,1077.27,411.58Z"/><path class="cls-41" d="M202.92,58l-.08,1.14C202.3,58.69,202.21,58.3,202.92,58Z"/><path class="cls-3" d="M618.74,39.12l1-1.07Z"/><path class="cls-1" d="M1006.47,325.59l-1.06,0a2.1,2.1,0,0,1-.28-.78l.52-.43Z"/><path class="cls-3" d="M619.69,38.06l1-1Z"/><path class="cls-115" d="M730.81,125.05l.75-1.16Z"/><path class="cls-7" d="M1288.28,415.71l-.31,5.59c-11.27-1-22.59-1.67-33.74-3.82h0c-.93-3.76-4.93-4.4-7-7-.09-1-.17-2.06-.26-3.1,0-.61.09-1.22.14-1.84,0-.83.06-1.84-1.12-1.64-1.35.22-1.74,1.33-1.68,2.6l0,0-1,1c-2.53,1.07-3.73,3.68-5.94,5.13-1.54-3.34-4.43-1-6.47-1.18-9.22-.83-15.59-8.48-24.56-9.69a3.28,3.28,0,0,1-2.1-2c-1-3.12-3.5-5.12-5.09-7.79-3.68-6.16-11.84-8.25-16.8-4.57-2.69-1.65-2.49-5.36-5.07-7.11-.12-1.64,5.16,0,1.54-3.58,3.15-.14,6.14.27,6.12-4.36,2.63,3.22,4.89,4.54,8.08,2.44,3.76,4.46,8.18,8.13,10.82,13.45a8.41,8.41,0,0,0,6.14,4.49c6,1.25,10.65,5.55,16.24,7.82,5.11,3.37,10.53,1,15.81.75,2.09-.12,2.35-2,2.25-3.78,3.82-.61,6.81,0,7.8,4.51,1.26,5.79,6.27,6.45,10.92,7.25,1.77.31,3.62.16,5.22,1.18,3.86,1.56,7.91,1.81,12,2.08C1283.11,412.78,1286.64,412,1288.28,415.71Z"/><path class="cls-116" d="M1033.48,383.59a3.41,3.41,0,0,1,2.27-2.43q13.83,16.56,27.66,33.1c.64.77.19,1.56.12,2.34-3.49,1.46-6.87,3.26-10.47,4.32-6.78,2-12.36,7-19.62,7.66-.23-13.4-.34-26.79,1.8-40.09C1035.5,386.86,1036.54,384.32,1033.48,383.59Z"/><path class="cls-117" d="M1033.48,383.59c3.06.73,2,3.27,1.76,4.9-2.14,13.3-2,26.69-1.8,40.09v0h-1.21c-2.24.12-3.85-1.45-5.78-2.17-4.48-3.89-9.82-6.36-15-9.14l-.84-.81-.18-.18-.94-.74-.14-.12-1-.75a4.66,4.66,0,0,0-.89-.23c1-1.32,1.86-2.69,2.9-3.95q9.95-12.06,19.95-24.07C1031.81,385.92,1032.61,384.72,1033.48,383.59Z"/><path class="cls-9" d="M1006.47,325.59l-.82-1.17c-.17-2.41-.8-4.83.24-7.34,4.77-1.23,5.51,2.31,6.56,5.47-.64,3.39,2,3,4,3.35-.39,1.29-2.46.18-2.46,2.25,2.8,1.1,5.56.21,8.32-.5-.19,1.46.65,2.53,1.39,3.61.57.85,1.34,1.61,2.46,1.28,1.52-.45,1.19-1.76,1.1-2.9,3.73,3.18,7.41,1.78,10-1.13,2-2.27,4-2.2,6.17-1.63,2.38.63,5,1.31,6.84,2.84,5.39,4.61,10.38,2.12,14.93-.79,2.53-1.61,4.58-2.7,7.12-1.1,2.8,1.77,4.81-2,7.77-.82-.57,2.05-1.59,3.73-1.32,6,.32,2.64-2,4-4.76,3.77-3.24-.24-6.52-.68-7.1,3.7-3-.88-1.48-2.61-1.61-3.9l.15,0c.57-.44.23-.18-.11.08-4.81-.55-9.11,1.06-13.31,3.12-6-4.16-12-4.45-17.71.55-1.14-1.23-1.17-3.76-3.63-3.43-1.5.2-1.31,1.64-1.37,2.77-3.74-3.15-8.32-3-12.8-3.2l-3.9-5C1011.86,328.13,1009,327.06,1006.47,325.59Z"/><path class="cls-118" d="M1111.12,409.4c2.24-5.74,8.39-9,13.87-7.41,6.08,1.79,10.16,8.39,8.52,14.34A56.4,56.4,0,0,1,1121.8,439c-6-8.74-11.55-16.86-11.52-27.41A2.18,2.18,0,0,0,1111.12,409.4Zm17.39,4.12c0-4.66-2.08-7.07-6.34-7.17-4-.09-6.84,2.68-7,6.82a7,7,0,0,0,6.66,7.22C1126,420.53,1128.46,418,1128.51,413.52Z"/><path class="cls-119" d="M1206.31,448.4c2.8,0,6,.32,5.6,3.92-.37,3.4-3.67,3.33-6.39,3.08-8.4-.78-16.36-3.9-24.86-4.44a91,91,0,0,0-15.83.05c-7.38.81-14.85.64-22.2,2.27-2.37.53-5.39-.76-5.25-4,.56-13.21-1.91-26.58,1.84-39.65.24-.83.35-1.62,1.25-2,0,12.23-2.11,24.41-.61,36.67.62,5,1.84,6.28,7,6.07,3.29-.14,6.58-.62,9.85-1,1.41-.18.7-1.12.47-1.84,1-.25,2.32.18,3-1.11,0-1.64.07-3.28.11-4.93,2,.59.37,3.24,2.17,3.86h9.68c3.5,3,13.06,3,15.67-.1-.69-.92-1.81-.63-2.7-1,1.11-1,2.93-.25,4.17-2v-5.83c.65,2.21,3.49,2.71,4,5.07-.38.35-1.19.59-.25,1.36.08-.53.15-1,.21-1.39,2.14,0,2,1.5,2.07,3-1.3,1-1.33,2,0,3h0c0,.3,0,.6,0,.9-3.6.17-7.25-.32-11.68.71a60.22,60.22,0,0,0,19.88,2.49c2.35-.06,3.13-.87,1.62-3Z"/><path class="cls-120" d="M1152.13,399.46c1.13-2.74,3.23-2.93,5.73-2.25q12.69,3.46,25.4,6.88a26.25,26.25,0,0,0,2.93.46l5.15,3c-.52,2.5.71,5.23-.89,7.77l-2-.27c-11.07-1.63-21.92-4.59-33.12-5.44l-3,.84c4.22-2.84,3-7,2.9-11.12Z"/><path class="cls-121" d="M1182.32,387.45c5-3.68,13.12-1.59,16.8,4.57,1.59,2.67,4.14,4.67,5.09,7.79a3.28,3.28,0,0,0,2.1,2c9,1.21,15.34,8.86,24.56,9.69,2,.18,4.93-2.16,6.47,1.18-1.35,1.62-2.69,3.25-4,4.88-3.41,1.16-6.93,1.44-9.93-.69a54.6,54.6,0,0,0-13.1-6.38c.31-3.64-1.47-5.53-5-5.93-2.16-2-4.68-3.73-6.39-6.05a9.11,9.11,0,0,0-9.7-3.93C1185.22,393.81,1184.89,389.56,1182.32,387.45Z"/><path class="cls-122" d="M1152.26,410.43l3-.84c-.68,2.63,1.74,2.74,3,3.75-5.19-.37-9.47,1.84-13.8,4.37-2.48,1.46-3.82,2.94-3.22,5.82q0,9.45,0,18.92c.19,2.21,1.88,1.82,3.29,1.87,2.92.09,5.85.15,8.77.23-.12,2.76,1.87,2.85,3.81,3,.23.72.94,1.66-.47,1.84-3.27.42-6.56.9-9.85,1-5.17.21-6.39-1.07-7-6.07-1.5-12.26.62-24.44.61-36.67a1.58,1.58,0,0,1,.86-.1c0,2.63,0,5.25.05,7.88.25.83.58.75,1,.09l.72-.8c.52.52,1,.43,1.31-.18l1.9-1.11a1.83,1.83,0,0,0,2-1h0l1.13-.9Z"/><path class="cls-123" d="M1030.35,386.4q-10,12-19.95,24.07c-1,1.26-1.94,2.63-2.9,3.95-1.16.86-1.46,2-.26,2.87,1.74,1.22,3.43,2.49,5.3,3.57,3.66,2.12,8.35,2.63,10.89,6.58a43.17,43.17,0,0,1-18-9.55c-2.41-2.08-.44-4.86.91-6.69a207,207,0,0,1,21.78-24.91C1028.8,385.67,1029.76,383.91,1030.35,386.4Z"/><path class="cls-34" d="M1288.28,415.71c-1.64-3.71-5.17-2.93-8.08-3.12-4.1-.27-8.15-.52-12-2.08,4.92,0,9.83-.34,14.72.9,3.23.82,6.15.76,6.32-4.15.15-4.21,3.21-5.65,9.8-5.54.29,3,.58,6-.85,8.82C1295.08,412.64,1290.82,412.53,1288.28,415.71Z"/><path class="cls-124" d="M1152.26,410.43l-2.86,1.16-1.13.9h0a2,2,0,0,0-2,1l-1.9,1.11-1.31.18-.72.8-1-.09c0-2.63,0-5.25-.05-7.88l1-1a2.89,2.89,0,0,0,2.84-2.14l7-5,3-.15C1155.24,403.4,1156.48,407.59,1152.26,410.43Z"/><path class="cls-125" d="M1026.44,426.39c1.93.72,3.54,2.29,5.78,2.17.41.63.82.81,1.21,0v0c7.26-.7,12.84-5.68,19.62-7.66,3.6-1.06,7-2.86,10.47-4.32,1.67,1.92.44,3.12-1.18,3.87-2.56,1.18-5.21,2.16-7.86,3.12-6.19,2.23-12.48,4.21-18.58,6.67-4.41,1.78-7.66.5-10.61-2.69Z"/><path class="cls-126" d="M1193.22,441.54c-.46-2.36-3.3-2.86-4-5.07l0-2c1.53-.45,3.29.37,4.58-.72,1.22-2.24-1.23-3.24-1.41-4.93s-.18-3.56-.26-5.35.71-3.62-.93-5.06c1.27-3.56,1-7.24.94-10.91l.14-.14c3.15,5,1.54,10.59,1.85,15.93.17,3.05.06,6.08,3.64,7.39l-1.59,1.75v9c0,.67,0,1.33,0,2l-1,1c0-1.46.07-3-2.07-3Z"/><path class="cls-127" d="M1003.42,300.76l-1-1.81c3.11-.64,6.12-.41,9.31-2.37,3.68-2.26,8.66-1.42,13.44.24-2.1,3.58-4.64,4-7.57,3.68-3.7-.36-7.41-.59-11.11-.82C1005.39,299.61,1004.17,299.57,1003.42,300.76Z"/><path class="cls-128" d="M1189.18,394.58a9.11,9.11,0,0,1,9.7,3.93c1.71,2.32,4.23,4.05,6.39,6.05-2.1,3.56-4.11,2.87-6-.14-.76-1.18-1-2.78-2.83-3C1195.17,397.93,1190.06,398.48,1189.18,394.58Z"/><path class="cls-129" d="M1210.27,410.49a54.6,54.6,0,0,1,13.1,6.38c3,2.13,6.52,1.85,9.93.69-.48,1.45-1.79,1.68-3,2.06-7.38.1-14.4-1-20.16-6.16,0-.6,0-1.21-.07-1.82C1210.14,411.26,1210.2,410.87,1210.27,410.49Z"/><path class="cls-130" d="M1195.25,444.47l1-1a3.31,3.31,0,0,0,2-1.93l3.93-.14c1.32.31,3-.52,4,1.54-1.1,2.86-4.08.75-6.6,2.54h12.87c-2.15,2.93-4.46,1.6-6.25,2.09l-10.91-.11h0Z"/><path class="cls-131" d="M1073.24,388.43c.17,3,.32,5.92-4.25,4.53-1.37-.41-1.54.77-1.77,1.71-1.87-4-6.14-5.88-8.25-9.68-1.34-2.41-3-4.64-2.34-8.55,5.14,5.46,7.19,12.93,14,15.64C1072.63,391.45,1072,389.34,1073.24,388.43Z"/><path class="cls-132" d="M1210.14,413.46c5.76,5.19,12.78,6.26,20.16,6.16-7.81,1-15.7,2.69-22.78-1.76C1207.59,415.06,1208.94,414.32,1210.14,413.46Z"/><path class="cls-133" d="M1026.44,426.39l-1.14,1.18-1.87-.13c-2.54-3.95-7.23-4.46-10.89-6.58-1.87-1.08-3.56-2.35-5.3-3.57-1.2-.85-.9-2,.26-2.87a4.66,4.66,0,0,1,.89.23l1,.75.14.12.94.74.18.18.84.81C1016.62,420,1022,422.5,1026.44,426.39Z"/><path class="cls-134" d="M1051.34,367.59c3.59-.32,7.06.72,10.72.6,6.33-.21,7.9-.62,10-6.3.59-1.53.77-3.23,2.24-4.3l.18,2.15-.12,2.77c-2.54,3.72-4.62,8-10.08,8.11-1.48-1-3-1.59-4.83-.88C1056.79,369,1053.37,370.92,1051.34,367.59Z"/><path class="cls-24" d="M1210.27,410.49c-.07.38-.13.77-.2,1.15-1.8-1.25,0-5.37-3.59-5-3.23.38-3.12,3.54-3.49,6.35-3.16-3.7-7.54-6.13-6.59-11.59,1.78.2,2.07,1.8,2.83,3,1.93,3,3.94,3.7,6,.14C1208.8,405,1210.58,406.85,1210.27,410.49Z"/><path class="cls-135" d="M1274.14,445.43l-3,3c-1.09,0-2.25.18-2.94-1,0-.66,0-1.32,0-2h0c1.75-.82,2.21-2.53,2.86-4.1l4.43-5C1276.89,440.08,1275.4,442.74,1274.14,445.43Zm-3.59,1.31c.41,0,.5-.16.24-.55a.57.57,0,0,0-.34.1A1.46,1.46,0,0,0,1270.55,446.74Z"/><path class="cls-136" d="M1065.29,342.83c-3.37-.72-6.37.79-9.27,1.25-1.54,2.12.15,4.59-1.53,6.33q-.37-3-.76-6c2.65-2.21,3.09-7.67,8.48-5.55C1061.38,341.44,1064.91,341,1065.29,342.83Z"/><path class="cls-137" d="M1009.5,314.52c-3.31,2-3.92-1.27-4.84-2.87-.78-1.35-2.34-3.47-.45-5,2.16-1.73,4.08-1.56,4.15,1.92C1006.92,310.91,1009.39,312.49,1009.5,314.52Z"/><path class="cls-138" d="M1244.25,397.57c.1,1.78-.16,3.66-2.25,3.78-5.28.29-10.7,2.62-15.81-.75C1232.75,402.84,1238.34,399.24,1244.25,397.57Z"/><path class="cls-139" d="M1074.41,362.51l.12-2.77,2.39-1.65c3.5,3.69,3.38,5.16-.57,8.09C1074.61,365.54,1076,363.24,1074.41,362.51Z"/><path class="cls-24" d="M1022.29,327.65c-2.76.71-5.52,1.6-8.32.5,0-2.07,2.07-1,2.46-2.25-1.93-.38-4.62,0-4-3.35,3.77,1,6.79,3.91,10.81,4.27Z"/><path class="cls-140" d="M1077.69,385.59c2.27-1.94,2.27-1.94,6.28,1.55C1081.65,390.33,1081.63,390.32,1077.69,385.59Z"/><path class="cls-141" d="M1202.18,441.37l-3.93.14c.43-2.41.85-4.82,1.32-7.46C1203.3,435.67,1202,438.79,1202.18,441.37Z"/><path class="cls-142" d="M1087.45,391.9c3.19-.36,4.49,1.41,5.93,3.21C1089.65,397.16,1088.85,396.74,1087.45,391.9Z"/><path class="cls-143" d="M1111.12,409.4a2.18,2.18,0,0,1-.84,2.22,11.52,11.52,0,0,1-4.82-2C1107.23,405.94,1107.44,405.94,1111.12,409.4Z"/><path class="cls-144" d="M1022.29,327.65l1-.83c1.85.2,2.9,1.53,4,2.82.09,1.14.42,2.45-1.1,2.9-1.12.33-1.89-.43-2.46-1.28C1022.94,330.18,1022.1,329.11,1022.29,327.65Z"/><path class="cls-145" d="M1102.18,402.35c-.8,2.45-2.12,2.23-3.58,1.28-1.77-1.16-2.58-2.55-.81-4.53A9.28,9.28,0,0,1,1102.18,402.35Z"/><path class="cls-146" d="M1068.69,377.46c2.76-1.44,4,.31,5.38,1.54C1072,382.16,1071.84,382.12,1068.69,377.46Z"/><path class="cls-147" d="M1009.5,314.52c-.11-2-2.58-3.61-1.14-5.93,2.06.88,3.91,2.07,3.82,4.58C1012.12,314.76,1010.65,314.55,1009.5,314.52Z"/><path class="cls-148" d="M1015.23,318.82c3.59-.26,4.24,1.5,4.66,4.08C1016.79,323.23,1015.75,321.79,1015.23,318.82Z"/><path class="cls-149" d="M1059.5,369.74c1.79-.71,3.35-.11,4.83.88,0,1.05.55,2.53-1.06,2.73C1060.72,373.67,1060.35,371.38,1059.5,369.74Z"/><path class="cls-33" d="M1159.27,503.39c-6.21,2.33-8.32,1.45-9.87-4.11C1151.62,503.22,1155.17,504,1159.27,503.39Z"/><path class="cls-126" d="M1195.27,447.43l10.91.11a8.51,8.51,0,0,0,.13.86l-1.22.15-9.82-.22C1195.25,448,1195.26,447.73,1195.27,447.43Z"/><path class="cls-130" d="M1196.26,441.45v-9C1199.61,435.47,1196.83,438.46,1196.26,441.45Z"/><path class="cls-126" d="M1191.34,407.53l-5.15-3c2.59-.19,5.08-.17,6.17,2.86l-.14.14A4.32,4.32,0,0,0,1191.34,407.53Z"/><path class="cls-31" d="M1271.07,441.38c-.65,1.57-1.11,3.28-2.86,4.1C1268.44,443.61,1268.89,441.89,1271.07,441.38Z"/><path class="cls-150" d="M1244.26,406.54c-.06-1.27.33-2.38,1.68-2.6,1.18-.2,1.15.81,1.12,1.64Z"/><path class="cls-150" d="M1246.92,407.42c.09,1,.17,2.07.26,3.1C1245.77,409.6,1244.19,408.69,1246.92,407.42Z"/><path class="cls-151" d="M1145.16,404.43a2.89,2.89,0,0,1-2.84,2.14A2.8,2.8,0,0,1,1145.16,404.43Z"/><path class="cls-150" d="M1243.28,407.55l1-1Z"/><path class="cls-134" d="M1050.3,366.61l1,1Z"/><path class="cls-33" d="M1149.28,496.39l-.9-1.08Z"/><path class="cls-14" d="M269.39,175.84l-.15,2.18-1.44,6.88-.56.89-6.33,12.11-.71.91-2.4,3.06-3.6-3.16L247,184.89c-.67-3.38-2.19-6.64-1.55-10.22,1.11-6.17,6.24-10.73,12-10.67C263.55,164.05,268,168.5,269.39,175.84Zm-11.92-6.73c-3.64-.07-7.28,3.28-7.34,6.77a7.42,7.42,0,0,0,6.85,7.2c4,.19,7.66-3.1,7.67-6.87C264.65,172.91,260.88,169.18,257.47,169.11Z"/><path class="cls-152" d="M209,136.88c-7.64-1-14.63,2-21.87,3.52-3.22.65-6,.57-8.94-1.27-3.72-2.29-7.93-1.38-12-.47a10.53,10.53,0,0,1-12.36-6.83c-1.4-3.63-2.13-7.79,1.78-10.84a3.18,3.18,0,0,1,.91-.34c.92,1,.41,2.2.6,3.29-.23,2.89,3.32,1.13,3.83,3.11l-2.87-.11c-3.32.86-2,2.74-.92,4.47,3.49,5.54,8.9,4.94,14.2,4.15,1.83-.27,3.75-1.11,5.24.19,6.09,5.3,12.24,2.3,18.42.46-2-.3-4-.11-5.92-.35-2.36-.3-4.7,2.41-7,0,1.48-.16,1.85-.83,1.4-2.3a8.83,8.83,0,0,1,0-6c1.72-1.46,4.11,0,5.54-1.71v0l4,0c1.06,1.7,3.13.42,4.6,1.66l1.07,5c1.17-3.73,4-3.78,5.3-5.68,2.56-1.87,5.31-.7,8.56-.82-2.66,1.8-5.56-.34-7.5,1.85-1.73,1.5-3.32,3.08-3.29,5.64l12.29,2.3C212.35,136.17,210.4,135.22,209,136.88Z"/><path class="cls-153" d="M160.89,127.05c-.51-2-4.06-.22-3.83-3.11,1.46-1,.56-2.77,1.26-4H166v0a3.32,3.32,0,0,1-.1.77c-1.1.31-2.34.49-2.25,2.27,2.9,2,6.47.07,9.43,1.31,1.23,1,.4,2.6,1.21,3.74,1.08-1.27,2.16-3.11,3.67,1.26-.21-2.91,1-4.29-.19-5.92-3.46-1.13-7.23-.38-12.09-.7l7.25-2.55c-1.69-1.81-3.44-.93-4.94-1.21,0-.3,0-.6,0-.91.91-.3,2.52.48,2.37-1.49-1.05-.86-2.27-.46-3.39-.61,1.41-1.62,3.32-.71,5-1,5.05,4.61,10.3,8.93,17,11-1.43,1.76-3.82.25-5.54,1.71a8.83,8.83,0,0,0,0,6c.45,1.47.08,2.14-1.4,2.3l-2.9-2.1L177,131.88c-5.26-2-10.73-.36-16.07-.94,0-.71,0-1.41,0-2.12Z"/><path class="cls-154" d="M240.94,112.94c9.73,1.18,17.16,5,19.44,15.66,1.29,6-1,9.5-7.1,9.28a18.27,18.27,0,0,1-2.95-.35c-4.8-1-9.35-1.34-13.76,1.85-4.56,3.31-9.66,2.66-14.61.51q0-.48,0-1l.11-.1c6.46,1.83,12.11,0,17.42-3.67a6.15,6.15,0,0,1,5.64-.76c3,1,6.2.51,9.32.39a2.22,2.22,0,0,0,2.31-2.14c.07-2-1.53-1.71-2.82-1.71-3.59-.76-7.45,1.25-10.89-1.07,4.43-.16,8.89.43,13.81-.41-1.35-2.08.33-4-.54-6.59-4.71.7-9.59-1.11-14.37,1.07-1.1,0-2.22,0-3-1,3.51-1.59,7.36-.8,11.23-1.53-2.67-1-4.32-2.57-4-5.14-2.12-.77-4.06.23-6-1.08.27-.8.53-1.54.78-2.29Z"/><path class="cls-152" d="M189,125.9c-6.69-2.08-11.94-6.4-17-11l-2.56-1.73c5.3-1,9.57-3.6,14.29-4.92,7.66-2.16,11.07-6.25,11.26-14.36.09-4.17-1.11-8.71,3-11.88-.18,2.09.69,3.08,2.87,3,2-.1,4,0,7.15,0-4.55,2.44-8.1,3.29-12.47,2.81,2.88,4.75-.23,8.94.42,13.19-1.57,1.59-.66,4.46-2.75,5.17,4.37,2.08,8.57,5,13.83,4.14-5.28.55-10.56,2.64-15.46-1.39-1.7-1.4-3.74-1.33-2.59,2-2.33.48-4.94-.88-7,1.08-1.82,0-3.77-.32-5.11,1.6,1.24.65,3.2.24,3.14,2.39-1.09-.31-2.12-1.59-3.64,0,4.53,3.12,9.67,5.24,12.63,10Z"/><path class="cls-155" d="M196,101c-.65-4.25,2.46-8.44-.42-13.19,4.37.48,7.92-.37,12.47-2.81-3.17,0-5.16-.08-7.15,0-2.18.1-3.05-.89-2.87-3h0q.5,0,1,0l.91.94c1,1.41,2.54.89,3.91.91h11.33l2.8,5.08c-1.43,1.28-2.34,2.94-1.79,4.76a22.61,22.61,0,0,1,.79,7.21c-4.67-2.44-9.38-3-13.66.15-3.08-3.27,1.44-6.61-1.33-9.39a3.83,3.83,0,0,0-3.85,1.43C197.76,95.85,198.59,98.88,196,101Zm16.21-6.26c1.25-1,.55-2.47,1-3.67.91-.22,2-.21,2.13-1.83H202c2.64,1.25,2.95,4,4,6.17l3.16-.55,1-.78Z"/><path class="cls-154" d="M216.94,100.92a22.61,22.61,0,0,0-.79-7.21c-.55-1.82.36-3.48,1.79-4.76.61,4.31-.74,8.63,1.25,13,2.95,6.51,8.35,8,14.49,9,2.46.39,5.67-1.72,7.26,2v0c-5-.18-10.13,1.06-15-1a6.23,6.23,0,0,0-4.08-3.15c-1.81-.54-3.82-1.22-3.89-3.73v-1.08Z"/><path class="cls-156" d="M200,78c3.23,1.91,3.76-.8,4.79-2.75,1.28-2.44,1.4-5.89,5.25-6.15,1.51,3.75-5.34,6.42-1.67,10.36,1.87.73,1-2.13,2.59-1.47-1,4.48-7.18,5.53-12,2A1.91,1.91,0,0,1,200,78Z"/><path class="cls-157" d="M168,118.9c1.5.28,3.25-.6,4.94,1.21l-7.25,2.55c4.86.32,8.63-.43,12.09.7,1.22,1.63,0,3,.19,5.92-1.51-4.37-2.59-2.53-3.67-1.26-.81-1.14,0-2.71-1.21-3.74-3-1.24-6.53.72-9.43-1.31-.09-1.78,1.15-2,2.25-2.27l.44-.12-.34-.65v0A2.14,2.14,0,0,1,168,118.9Z"/><path class="cls-158" d="M199,80c4.77,3.51,11,2.46,12-2,.64-.34,1.27-.69,1.9-1-.39,2.69,2.47,4.31,2.28,6.93H203.81c-1-1.43-2.58-.73-3.91-.91L199,82l-.05-1C199,80.66,199,80.33,199,80Z"/><path class="cls-159" d="M212.86,76.94c-.63.35-1.26.7-1.9,1-1.59-.66-.72,2.2-2.59,1.47-3.67-3.94,3.18-6.61,1.67-10.36,1.26,1,2.51-.09,3.76,0a2.53,2.53,0,0,1,0,.91,2,2,0,0,0-.66,2.08Z"/><path class="cls-160" d="M167,115.89c1.12.15,2.34-.25,3.39.61.15,2-1.46,1.19-2.37,1.49-2.51-.9-4.94,1.9-7.88.13C162.26,116.1,164.6,115.9,167,115.89Z"/><path class="cls-156" d="M201.13,67.08l2.25-.45c.94,1-1.22,2.51.56,3.32-.27,2.48-1.88,3.93-3.9,5Q200.58,71,201.13,67.08Z"/><path class="cls-154" d="M209,136.88c1.42-1.66,3.37-.71,5.06-1a5.8,5.8,0,0,1,.93,0c2.15,1.89,4.72.63,7.08.94l1.9.1c0,.3,0,.6,0,.9-.75.11-1.52.19-1.92,1l-.11.1-3,0c-.33,0-.65,0-1,0-.73-1.18-1.91-1-3-1l-1,0a2,2,0,0,0-2-1Z"/><path class="cls-152" d="M214.94,137.92c1.11,0,2.29-.21,3,1C216.86,138.87,215.68,139.06,214.94,137.92Z"/><path class="cls-152" d="M218.94,138.91l3,0q0,.48,0,1C220.86,139.87,219.68,140.07,218.94,138.91Z"/><path class="cls-152" d="M211.94,136.92a2,2,0,0,1,2,1A2.13,2.13,0,0,1,211.94,136.92Z"/><path class="cls-25" d="M213.15,72.06a2,2,0,0,1,.66-2.08A2,2,0,0,1,213.15,72.06Z"/><path class="cls-156" d="M198.94,81l.05,1q-.5,0-1,0Z"/><path class="cls-161" d="M546.63,36.26l1.14,1.81c-.28,2.83-2.54,1.66-4,2-14.51,0-29,0-43.55-.11-1.89,0-4,.72-5.58-1.08a1.28,1.28,0,0,1,0-.7c.21-1.43.58-2.88-.58-4.12a2.17,2.17,0,0,1-.07-1c3.19,0,.63,4.1,3.28,4.6,2.49-1.54,1.6-3.55.76-5.56l6.55-.23c2.4,0,4.58.42,6.13,2.5,1.24,1.67,3,1.78,4.91,1.64,5.7,2.36,11.61.6,17.42.85,2.76.12,5.75.85,10.28-1.56-6.39.36-3.47-2.37-3-4.28h-2.44c.59-1.19,1.82-.93,2.8-1.23,2,.8,2.46,3.09,4.19,4.13l0,.06c.3.36.59.72.88,1.09l0,0C546,35.46,546.31,35.86,546.63,36.26Z"/><path class="cls-162" d="M526.71,20c3.45,0,6.9,0,10.35,0,1.59,0,3.45-.38,3.76,2-.53,2-1.35,3.87-1.06,6-1.52,1.59-2.2-2-3.92-.41,0,2.1-1.21,4.49.77,6.63-1.07,3-3,1.54-4.71.86l.9-1a6.36,6.36,0,0,0-.08-6.84l-1,0L529,28.8l-.48-1.7c0-1,.88-2.29-.8-3-1.53.93-.3,1.95-.07,2.91-1.78,2.19-1.07,4.66-.77,7.08l1,1.62a5.19,5.19,0,0,1-4.27-.08c-.58-2.54,1.31-5.71-2-7.47-3.66,1.71-.92,5.35-2.71,7.58-1.18.59-2.12-.2-3.11-.76,0-.3-.06-.61-.07-.91a1.66,1.66,0,0,0,.8-2c0-3.3.07-6.61.1-9.91,0-.7.05-1.39.07-2.08l.1,0Zm-3.32,4.55c-.07-1-.52-1.47-1.22-1.47a1.14,1.14,0,0,0-1.3,1.09c-.06.92.26,1.66,1.3,1.41C522.68,25.47,523.07,24.84,523.39,24.56Z"/><path class="cls-163" d="M543.72,40.08c1.51-.35,3.77.82,4-2,1.57,6.59-.12,9-6.33,9-8.62-.06-16.94-2.51-25.5-3.23-8.05-.67-16.06-2-24.18-1.77l-8,0-8.89,0-1.29-.16a3.7,3.7,0,0,0,.23-.85l33.87,0c10.86,1.69,21.82,2.21,32.77,2.92,1.88.12,3.2-.75,3.09-2.93A7.85,7.85,0,0,0,543.72,40.08Z"/><path class="cls-164" d="M526.71,20l-9.86,0c-.05-.71-.09-1.42-.14-2.13l0-1.77.13-.09C522.93,13.64,525.57,14.69,526.71,20Z"/><path class="cls-165" d="M539.76,28.07c-.29-2.11.53-4,1.06-6,2.37-1.17,2.58,1,2.73,2.15.41,3.23,1.61,6.38,1.23,9.71-1.73-1-2.22-3.33-4.19-4.13A1.55,1.55,0,0,0,539.76,28.07Z"/><path class="cls-166" d="M574.37,37c-.76,2.51-2.49,3-4.19,3.55-1.12-.44-1.9-1.42-1.23-2.29A4.11,4.11,0,0,1,574.37,37Z"/><path class="cls-167" d="M558.05,44.91c-.29-3.17,2.47-2.61,4.12-4.4C562,44.9,562,44.9,558.05,44.91Z"/><path class="cls-168" d="M597.2,28.23c-2.5.59-3.84,2.63-6.51.43C592.65,27.13,593.87,25,597.2,28.23Z"/><path class="cls-169" d="M552.64,47.81c-2,2.26-3.8,2.39-6.25,2.53C547.83,47.49,549.4,46.64,552.64,47.81Z"/><path class="cls-170" d="M579.64,34.82c1-2.9,2.9-2.83,5.2-3.34C584.35,34.78,582.44,35,579.64,34.82Z"/><path class="cls-171" d="M540.8,54c-1.84.65-3.69,2-5.52,0l4.3-2.54C541.16,52.08,540.62,53.19,540.8,54Z"/><path class="cls-165" d="M545.69,35.1c-.29-.37-.58-.73-.88-1.09C545.11,34.37,545.4,34.73,545.69,35.1Z"/><path class="cls-165" d="M546.63,36.26c-.32-.4-.64-.8-1-1.19C546,35.46,546.31,35.86,546.63,36.26Z"/><path class="cls-172" d="M529.82,57.71c-.61,2.93-2.94,2.77-4.42,3.91C523.78,57.65,524.53,57,529.82,57.71Z"/><path class="cls-3" d="M605.67,85c0,.57.9,1.12,0,1.75-1.21-.58-.82-1.16,0-1.74Z"/><path class="cls-173" d="M1244,480.23l-2.85,2.14-7.91.06c2.94-3.13,8-.53,10.83-4.08C1244,479,1244,479.61,1244,480.23Z"/><path class="cls-174" d="M1224.22,485.39l-3.92,3.06C1220.3,485.75,1222.09,485.36,1224.22,485.39Z"/><path class="cls-175" d="M269,185.84c2.15.37,4.07-1.71,6.49-.51,1,2.79.47,5.71.24,9.08-4.78.1-8.61,2.57-12.7,4.37.92-2.31,2.15-4.32,4.62-5.33s3.13-2.74,1.38-4.93C268.19,187.53,268.55,186.74,269,185.84Z"/><path class="cls-176" d="M269,185.84c-.4.9-.76,1.69,0,2.68,1.75,2.19,1.13,3.91-1.38,4.93s-3.7,3-4.62,5.33l-2,0c0-.3,0-.61-.08-.91l6.33-12.11.37,0H268Q268.47,185.81,269,185.84Z"/><path class="cls-13" d="M329.57,190.26c-3.16,2.82-6,5.87-10.72,4.26C321.08,190.92,326.13,188.78,329.57,190.26Z"/><path class="cls-175" d="M268,185.81h-.38l-.37,0,.56-.89A5.44,5.44,0,0,1,268,185.81Z"/><path class="cls-175" d="M260.91,197.9c0,.3.07.61.08.91l-.4,0-.39,0Z"/><path class="cls-3" d="M641.68,87l1-1Z"/><path class="cls-177" d="M608.69,5.32c3.95,3.37,4.79,6.79,2.35,10.19-2.29,3.18-5.5,3.58-8.83,2.19-3.5-1.47-4.31-4.79-2.78-9.74.84,1.19,2.15,1,3.36,1.2-1.18,2-1.26,3.78.88,5.18a2.91,2.91,0,0,0,4-.6c2.12-2.26.47-3.89-1.06-5.5C607.11,7.11,608.67,6.75,608.69,5.32Z"/><path class="cls-178" d="M602.79,9.16c-1.21-.16-2.52,0-3.36-1.2,2.24-3.85,5.4-4.45,9.26-2.64,0,1.43-1.58,1.79-2,2.92a4.24,4.24,0,0,1-.94,0,1.71,1.71,0,0,0-2,.52Z"/><path class="cls-179" d="M1051.65,360.75l4.26,3.42c-2.53,4.23-3.84-.55-5.71-.64C1050.4,362.46,1050.57,361.37,1051.65,360.75Z"/><path class="cls-10" d="M263,215.84c-5.56-.66-2.19-4.65-3-7.17,2.16-1.08,3.94-2.37,6.54-1.3,1,3.72-.31,6.49-3.6,8.49Z"/><path class="cls-3" d="M640.66,80.94h-2C639.32,79.92,640,80,640.66,80.94Z"/><path class="cls-180" d="M430.91,39.13,433.77,35c1.4.62,1.71,3.66,4.19,1.88l6.68,0c.79.3,1.58,1.18,2.33,0l7.73.2c.8,1.06,1.51.15,2.26-.11,2.32.25,2.57-1.85,3.54-3.13,1.5,3.17,3,3,4.89,0-5.82-2.47-2-6.28-1.57-9.65.58-.76.95-1.79,2.35-1.6,1.64,2.41-.13,5.47,1.17,7.94l8.32,1.65c1,1.76.13,4.09,1.64,6l2.39-1.75c.53,3.35-1.36,3.74-4.11,3.73-14.26-.05-28.52,0-42.78.08A1.93,1.93,0,0,1,430.91,39.13Z"/><path class="cls-181" d="M460.5,33.81c-1,1.28-1.22,3.38-3.54,3.13-.9-2.84,2-6.55-2-8.7-4.45.2-.45,5.16-3.44,6.25-1.71-2.28.57-5.4-1.77-7.43h0a4,4,0,0,0,0-1h0c1-.68,1-1.35,0-2l0,0c-.71-1-1.36-1.07-1.92.13l0,1.82c0,.4,0,.81.05,1.21a1.87,1.87,0,0,1-.18.8,3.67,3.67,0,0,1-2.1-2.11l.07-1.68c-.49-1.2-1.15-1.13-1.93-.26l-.08.06c-1,.72-.94,1.42.05,2.09l0,0c0,.35.09.69.14,1v0c-2.43,1.84-.18,4.77-1.71,7-.91-2.46.47-5.18-1.23-7.32-.07-.29-.13-.59-.17-.88h0c1-.66,1-1.31,0-2-1.58-.29-2.09.48-1.93,1.92-.06.3-.13.61-.19.91l-.88,1.39c-1-.41-1.07-1.31-1.13-2.21-.2-1.75-.39-3.5-.67-6H449.8l10-.11a8,8,0,0,1,.85.19l.19,2C459.35,26,461.4,30,460.5,33.81ZM455,25.93c.7-.9,1.17-1.55.44-2.36a.8.8,0,0,0-1.28,0C453.46,24.38,453.73,25.06,455,25.93Z"/><path class="cls-182" d="M430.91,39.13a1.93,1.93,0,0,0,1.89,1l2,1.75c.41,3.18,2.91,2.12,4.67,2.14,11.42.18,22.69-2.34,34.12-2.09l1.29.16c-3.52,2.06-7.46.68-11.19,1.33-8.93,1.55-17.95,2.72-27,3.51C430.89,47.44,429.92,45.75,430.91,39.13Z"/><path class="cls-183" d="M436.64,26.09c.06.9.12,1.8,1.13,2.21l1,.7c.34,1.74-.59,3.74,1.08,5.21-.64.87-2.1,1.17-1.86,2.65-2.48,1.78-2.79-1.26-4.19-1.88,1.24-2.29,1.16-4.78,1.1-7.27C434.84,26.53,434.66,25.11,436.64,26.09Z"/><path class="cls-184" d="M439.34,17.13c2.52-1.63,4.87-.08,7.32.2C444.21,18.63,441.78,18.11,439.34,17.13Z"/><path class="cls-185" d="M213.41,60.49a2.11,2.11,0,0,1,.07-3C214.17,58.54,214.37,59.51,213.41,60.49Z"/><path class="cls-186" d="M485.71,9c5.19.21,5.19.21,11.49,4.82H478.66c3.09-1.63,5.41-2.81,7.07-4.81Z"/><path class="cls-23" d="M633.18,92.12c-.34-4.37,3.09-4.05,6.09-5.35C639.89,92.19,634.7,90.1,633.18,92.12Z"/><path class="cls-187" d="M516.74,16.15l0,1.77c-5-1.21-7.1-.25-8.81,4-.31-1.24.66-3-1.5-3.53-2.51,1.27-1.33,3.67-1.74,5.57-2-1.27.13-4.11-2-5.49-1.5,1.83-.59,3.8-.84,5.61,0,.31,0,.62,0,.94l-1.06.1h0c-.24-2.35,1.18-5.05-1.25-7-2.56.78-1.52,2.63-1.59,4.09-.1,1.26-.19,2.53-.28,3.79-1.38-1.53-.81-3.42-.8-5.15,0-2.19-1-2.91-3-2.76l-3.25.19c-2.47,3.21-.51,7.09-1.59,10.51,1.12,2.24,3.2.88,4.8,1.28.77.07,1.55.11,2,.93-.79.08-1.57.19-1.93,1.05.05.35.09.7.13,1.05a2.17,2.17,0,0,0,.07,1l-.31,1c-4.26-1-8.52-1.66-12.78,0-.31-1,.4-2.35-1-3l-3.15-1c-.68-.45-2,.65-2.25-.91.79-1,1.51-.2,2.24-.05l6.83-.53c0-4,.72-7.76-.83-12.06-3.42,3.2-1,6.83-2.5,9.64L478.94,25c-.09-.93-.17-1.86-.26-2.78-.07-1.48,1-3.39-1.64-4-2.61,1.68-.23,4.82-2,7.08-.19-2.23-.35-4.17-.51-6.11-1.09,2.05,0,4.8-2.78,6-.38-2-.76-4-1.3-6.8-1.85,2.3-1,4.24-1.68,5.75-1.8-1.45-.16-3.93-1.83-5.72-2.2-.22-4.57-1-7-.28,0-.32-.06-.64-.09-1,1.45-1.64,3.4-1,5.14-1,12.06-.05,24.13.08,36.2-.06C506.34,16,511.54,15,516.74,16.15Zm-30.59,2.52c-1.15,3.59-2.06,7.18.16,10.67A12.39,12.39,0,0,0,486.15,18.67Z"/><path class="cls-188" d="M476.76,30.07c-.73-.15-1.45-1-2.24.05.2,1.56,1.57.46,2.25.91l-1.11,1.08-8.32-1.65c-1.3-2.47.47-5.53-1.17-7.94-1.4-.19-1.77.84-2.35,1.6l-1.09-1c0-3.84,0-3.84-2.07-3a8,8,0,0,0-.85-.19l.07-1.92c2.47-.7,4.84.06,7,.28,1.67,1.79,0,4.27,1.83,5.72.58,1.61-1,4,1.54,5,2-.9,1.07-2.63,1.44-3.91,2.79-1.16,1.69-3.91,2.78-6,.16,1.94.32,3.88.51,6.11,1.79-2.26-.59-5.4,2-7.08,2.66.64,1.57,2.55,1.64,4-3.64,1.46-1.52,4.53-1.92,6.89Z"/><path class="cls-86" d="M210.12,50.18c-1.45,2.24-4.27,1.49-6.08,3.21L203.1,51c-.19-1.94.94-2.74,2.64-3a3.36,3.36,0,0,0,4.09,2Z"/><path class="cls-189" d="M209.83,49.92a3.36,3.36,0,0,1-4.09-2c.56-1.41-.73-3.86,2.2-3.94a2.21,2.21,0,0,0,.95.12h0C207.58,46.31,207.58,48.3,209.83,49.92Z"/><path class="cls-86" d="M208.89,44.1a2.21,2.21,0,0,1-.95-.12,1.52,1.52,0,0,1,.22-.69Z"/><path class="cls-123" d="M1011.46,417.25l-.84-.81Z"/><path class="cls-116" d="M1033.43,428.55c-.39.82-.8.64-1.21,0Z"/><path class="cls-123" d="M1009.36,415.4l-1-.75Z"/><path class="cls-123" d="M1010.44,416.26l-.94-.74Z"/><path class="cls-1" d="M1065.34,336.63c.34-.26.68-.52.11-.08l-.15,0Z"/><path class="cls-190" d="M1128.51,413.52c0,4.48-2.49,7-6.63,6.87a7,7,0,0,1-6.66-7.22c.11-4.14,2.93-6.91,7-6.82C1126.43,406.45,1128.56,408.86,1128.51,413.52Zm-3.21-.2c-.12-2.23-1.49-2.92-3.36-2.92s-3.46.65-3.35,2.77a3.33,3.33,0,0,0,3.67,3.25A2.87,2.87,0,0,0,1125.3,413.32Z"/><path class="cls-191" d="M1189.3,434.52l0,2v5.83c-1.24,1.73-3.06,1-4.17,2-4.31.58-8.81-1.21-13,1.08h-9.68c-1.8-.62-.21-3.27-2.17-3.86l-1.06-.26c0-.26,0-.51-.06-.77l.19-1.9c.94-.73.91-1.46,0-2.19l-.15-16.88-.93-1h0c-1.15-1.9-3.8-.11-5-2h0l1-1a2.11,2.11,0,0,1,2-.95c.72.93,1.41,1,2.09,0h0a9.73,9.73,0,0,0,5.25,1c1.83,0,3.68-.12,4.75,1.82-2.46.57-4.76-1.78-7.6-.25-1.09,5.86.62,11.92.22,18-.18,2.82,2.63,4.9,5.67,7.17.12-5.09-3.2-8.78-.77-13.11,2.36,2.42,1.13,6.27,3.5,8.5l3.7,5.69c5,.25,10,.37,14.73-1.41,1.19-2.57-.46-5.29,1.29-7.48Z"/><path class="cls-192" d="M1195.27,448.33l9.82.22c1.51,2.11.73,2.92-1.62,3a60.22,60.22,0,0,1-19.88-2.49C1188,448,1191.67,448.5,1195.27,448.33Z"/><path class="cls-193" d="M1172.13,445.36c4.16-2.29,8.66-.5,13-1.08.89.35,2,.06,2.7,1C1185.19,448.33,1175.63,448.39,1172.13,445.36Z"/><path class="cls-1" d="M1157.19,447.54c-1.94-.14-3.93-.23-3.81-3,2.49.54,3.57-1.42,5-2.81.33,1.67-1.25,4.08,1.82,4.69C1159.51,447.72,1158.22,447.29,1157.19,447.54Z"/><path class="cls-194" d="M1160.17,446.43c-3.07-.61-1.49-3-1.82-4.69l-.1-.34h.5l.47-.16,1.06.26C1160.24,443.15,1160.2,444.79,1160.17,446.43Z"/><path class="cls-126" d="M1195.25,444.47l0,3C1193.92,446.47,1194,445.47,1195.25,444.47Z"/><path class="cls-195" d="M1193.18,441.51c-.06.43-.13.86-.21,1.39-.94-.77-.13-1,.25-1.36Z"/><path class="cls-196" d="M1191.34,407.53a4.32,4.32,0,0,1,.88,0c.08,3.67.33,7.35-.94,10.91l-1.33.2c-3.28.06-6.37-1.65-9.7-1l-2-.2a2.08,2.08,0,0,0-2-.95c-5.79-2.28-12-2-18-3l.09-.17c-1.31-1-3.73-1.12-3-3.75,11.2.85,22,3.81,33.12,5.44l2,.27C1192.05,412.76,1190.82,410,1191.34,407.53Z"/><path class="cls-197" d="M1141.32,442.45q0-9.46,0-18.92c3.06.66,4.23-3,7-3.06l1.89,0,1.08-.92h0l1-1c.3,0,.6,0,.89,0,.58.58,1.67,1.17,1.65,1.73-.22,7.76,4.84,16.21-3,23C1148.38,444.25,1144.93,442.42,1141.32,442.45Z"/><path class="cls-198" d="M1141.32,442.45c3.61,0,7.06,1.8,10.61.81,7.79-6.79,2.73-15.24,3-23,0-.56-1.07-1.15-1.65-1.73h5l.93,1,.15,16.88v2.19l-.19,1.9-.91.93.1.34c-1.4,1.39-2.48,3.35-5,2.81-2.92-.08-5.85-.14-8.77-.23C1143.2,444.27,1141.51,444.66,1141.32,442.45Z"/><path class="cls-198" d="M1148.32,420.47c-2.75.06-3.92,3.72-7,3.06-.6-2.88.74-4.36,3.22-5.82,4.33-2.53,8.61-4.74,13.8-4.37l-.09.17c0,.34,0,.68,0,1h0l-2.09,0a2.11,2.11,0,0,0-2,.95l-1,1h0l-2.07,1C1149,417.31,1148,418.2,1148.32,420.47Z"/><path class="cls-198" d="M1146.27,413.46a2,2,0,0,1,2-1A1.83,1.83,0,0,1,1146.27,413.46Z"/><path class="cls-198" d="M1148.27,412.49l1.13-.9Z"/><path class="cls-198" d="M1143.06,414.75l1.31-.18C1144,415.18,1143.58,415.27,1143.06,414.75Z"/><path class="cls-198" d="M1141.38,415.46l1,.09C1142,416.21,1141.63,416.29,1141.38,415.46Z"/><path class="cls-199" d="M1192.21,423.52c.08,1.79.07,3.58.26,5.35s2.63,2.69,1.41,4.93c-1.29,1.09-3.05.27-4.58.72l-.28-.11c2.87-5.63,2.24-9.84-1.81-12,.38-.65.75-1.31,1.13-2h.46l.45.08A6.23,6.23,0,0,0,1192.21,423.52Z"/><path class="cls-200" d="M1192.21,423.52a6.23,6.23,0,0,1-3-3c.93-.37,1-1,.7-1.87l1.33-.2C1192.92,419.9,1192,421.81,1192.21,423.52Z"/><path class="cls-31" d="M1270.55,446.74a1.46,1.46,0,0,1-.1-.45.57.57,0,0,1,.34-.1C1271.05,446.58,1271,446.77,1270.55,446.74Z"/><path class="cls-201" d="M257.47,169.11c3.41.07,7.18,3.8,7.18,7.1,0,3.77-3.69,7.06-7.67,6.87a7.42,7.42,0,0,1-6.85-7.2C250.19,172.39,253.83,169,257.47,169.11Zm0,10.32c1.5-.44,3.11-1,3.23-3a3.08,3.08,0,0,0-3.27-3.46c-1.71-.07-3.23.77-3.33,2.81C254,178,255.36,179,257.47,179.43Z"/><path class="cls-202" d="M205,127.92c1.94-2.19,4.84,0,7.5-1.85-3.25.12-6-1-8.56.82l-1.86-.12.58-2c-1.24-1.51-3.14,0-4.23-1.72l1.41-1.22c2.05,1.45,4.57-2.88,6.24,1l1.66-3c.25,1.24-.22,2.69,1.19,3.84,6.27.59,12.83,3.29,19-1.32-.89-.76-2.47,0-2.92-1.5,1.89,0,2.74-1,2.82-2.77l.08-.19c4.29,0,5.74,4.28,8.92,6L231,127.92c-.77,0-1.62-.23-2.26.55a3.48,3.48,0,0,1,1.11,3.46c-1-1.4-2.37-1.82-4.14-2.13-4.38-.77-8.89.88-13-.55A19.81,19.81,0,0,0,205,127.92Zm17.92,0c.9,1,1.83,1.57,3.27,0H223c-2.51-2-5.15-.56-7.75,0Z"/><path class="cls-203" d="M205,127.92a19.81,19.81,0,0,1,7.59,1.33c4.14,1.43,8.65-.22,13,.55,1.77.31,3.1.73,4.14,2.13q.07,3,.17,5.92l-3-.08c-.82-1-2-.84-3-.82l-1.9-.1c-2.18-1.71-4.73-.6-7.08-.94a5.8,5.8,0,0,0-.93,0l-12.29-2.3C201.72,131,203.31,129.42,205,127.92Z"/><path class="cls-204" d="M161,130.94c5.34.58,10.81-1.06,16.07.94H161.89l-.07,1.89h17.29l2.9,2.1c2.33,2.4,4.67-.31,7,0,2,.24,4,0,5.92.35-6.18,1.84-12.33,4.84-18.42-.46-1.49-1.3-3.41-.46-5.24-.19-5.3.79-10.71,1.39-14.2-4.15-1.1-1.73-2.4-3.61.92-4.47,0,1.4-.07,2.89,2,3Z"/><path class="cls-153" d="M189,125.92c-3-4.76-8.1-6.88-12.63-10,1.52-1.58,2.55-.3,3.64,0h0c.7,1.19,1.89,1,3,1h0l1,1c3.42,1,5.28,5,9.24,5,2.51,0,3.82,2,5.72,3.08l-5.94-.06Z"/><path class="cls-205" d="M193,125.94,199,126c.87,1,2,.89,3.17.77l1.86.12c-1.31,1.9-4.13,2-5.3,5.68l-1.07-5C196.14,126.36,194.07,127.64,193,125.94Z"/><path class="cls-206" d="M160,129.9c-2-.07-2-1.56-2-3l2.87.11,0,1.77Z"/><path class="cls-206" d="M179.11,133.77H161.82l.07-1.89H177Z"/><path class="cls-152" d="M160,129.9l.94-1.08,0,2.12Z"/><path class="cls-2" d="M166,119.93l.34.65-.44.12A3.32,3.32,0,0,0,166,119.93Z"/><path class="cls-207" d="M227,137.77l3,.08-.07.11c.36.49.69.55,1-.07,0-3.33,0-6.65.08-10l5.93-4.08,1.05.06c1.26,5.07-2,8.64-4.51,12.87,5-5,11-3.8,16.64-3.89,1.55,0,3.51.57,3.85-1.94,1.29,0,2.89-.31,2.82,1.71a2.22,2.22,0,0,1-2.31,2.14c-3.12.12-6.29.57-9.32-.39a6.15,6.15,0,0,0-5.64.76c-5.31,3.7-11,5.5-17.42,3.67.4-.79,1.17-.87,1.92-1Z"/><path class="cls-208" d="M225.94,111.88c4.88,2.1,10,.86,15,1-.25.75-.51,1.49-.78,2.29,1.9,1.31,3.84.31,6,1.08-.33,2.57,1.32,4.15,4,5.14-3.87.73-7.72-.06-11.23,1.53q-.45.11-.9.24c1.32-2.31-1.28-2-2.24-2.94,1-.54,2.31-.05,2.7-1.47-2.51-4.45-6.77-2.6-10.45-2.64-.53,0-.24,1.12,0,1.73l-.08.19a13.3,13.3,0,0,1-5-3.1C225.71,115.68,225.46,113.42,225.94,111.88Z"/><path class="cls-209" d="M241.92,123.94c4.78-2.18,9.66-.37,14.37-1.07.87,2.62-.81,4.51.54,6.59-4.92.84-9.38.25-13.81.41.77-1.92-3.66-2.67-1.14-5,.81-.29.85-.6,0-.95Z"/><path class="cls-210" d="M241.88,124.88c-2.52,2.32,1.91,3.07,1.14,5,3.44,2.32,7.3.31,10.89,1.07-.34,2.51-2.3,1.92-3.85,1.94-5.68.09-11.63-1.09-16.64,3.89,2.52-4.23,5.77-7.8,4.51-12.87a1.2,1.2,0,0,0,.06-.7q.45-.14.9-.24c.81,1,1.93.93,3,1h0A4.3,4.3,0,0,1,241.88,124.88Zm-1.79,7.17c2.23-2.19,1.45-3.4-.55-4.64C238.61,129,238.62,130.22,240.09,132.05Z"/><path class="cls-211" d="M225.94,111.88c-.48,1.54-.23,3.8-3,3.09-3.48-2.81-7.24-5-11.89-5-.11-.57-.23-1.14-.51-2.62-.64,1.76-.39,2.3.48,2.64-2.06,2.61-5.61,2.86-7.95,5-1.63.45-2.81,2.89-4.83,1.38-2.91-2.16-6.73-2.75-9.22-5.55-1.15-3.31.89-3.38,2.59-2,4.9,4,10.18,1.94,15.46,1.39-5.26.89-9.46-2.06-13.83-4.14,2.09-.71,1.18-3.58,2.75-5.17,2.62-2.08,1.79-5.11,2.13-7.85A3.83,3.83,0,0,1,202,91.68c2.77,2.78-1.75,6.12,1.33,9.39,4.28-3.13,9-2.59,13.66-.15l1,3H202.11l0,1.08H218c.07,2.51,2.08,3.19,3.89,3.73A6.23,6.23,0,0,1,225.94,111.88Z"/><path class="cls-212" d="M202.12,126.77c-1.14.12-2.3.26-3.17-.77-1.9-1-3.21-3.08-5.72-3.08-4,0-5.82-4-9.24-5l-1-1h0c-.69-1.24-1.89-1-3-1h0c.06-2.15-1.9-1.74-3.14-2.39,1.34-1.92,3.29-1.57,5.11-1.6l0,0,1,1a22.72,22.72,0,0,0,17.85,5c1.39-.16,3-.53,4.11.94-1.59,1.12-4,.89-5,3l-1.41,1.22c1.09,1.67,3,.21,4.23,1.72Z"/><path class="cls-213" d="M204.91,118.89c-1.1-1.47-2.72-1.1-4.11-.94a22.72,22.72,0,0,1-17.85-5l-1-1,0,0c2.1-2,4.71-.6,7-1.08,2.49,2.8,6.31,3.39,9.22,5.55,2,1.51,3.2-.93,4.83-1.38-.25,2.49,2.63,1.18,3.4,2.82Z"/><path class="cls-214" d="M209.1,94.82l-3.16.55c-1-2.16-1.33-4.92-4-6.17h13.31c-.13,1.62-1.22,1.61-2.13,1.83-2.26.72-.86,2.39-1,3.67L210.1,94c-.46-.93.48-2.28-1-3.07Z"/><path class="cls-215" d="M209.1,94.82V91c1.48.79.54,2.14,1,3.07Z"/><path class="cls-216" d="M212.18,94.7c.11-1.28-1.29-3,1-3.67C212.73,92.23,213.43,93.72,212.18,94.7Z"/><path class="cls-156" d="M199.9,83c1.33.18,2.87-.52,3.91.91C202.44,83.85,201,84.37,199.9,83Z"/><path class="cls-217" d="M218,105H202.13l0-1.08H218Z"/><path class="cls-152" d="M215,135.91c2.35.34,4.9-.77,7.08.94C219.69,136.54,217.12,137.8,215,135.91Z"/><path class="cls-152" d="M227,137.77l-3,.08c0-.3,0-.6,0-.9C225,136.93,226.17,136.77,227,137.77Z"/><path class="cls-218" d="M479.92,32c1.36.69.65,2,1,3-.13,1.44-.72,2.91.44,4.76,4.26-.39,8.83,1.05,13.27-.94,1.57,1.8,3.69,1.07,5.58,1.08,14.52.09,29,.09,43.55.11a7.85,7.85,0,0,1-.16,1H507.7l-33.87,0q-17.4,0-34.79,0c-1.44,0-3-.42-4.23.84l-2-1.75c14.26,0,28.52-.13,42.78-.08,2.75,0,4.64-.38,4.11-3.73Z"/><path class="cls-219" d="M529,28.8l2.76-1.51c.12.39.24.78.45,1.49.24-.7.37-1.09.51-1.47a6.36,6.36,0,0,1,.08,6.84L531.52,30c.14,1.78-3.69,4.07.38,5.17,1.75.68,3.64,2.15,4.71-.86,1.23-.77,1.12-2,1.18-3.24h2.44c-.47,1.91-3.39,4.64,3,4.28C538.7,37.74,535.71,37,533,36.89c-5.81-.25-11.72,1.51-17.42-.85.11-.36.22-.71.32-1.07,1,.56,1.93,1.35,3.11.76,1.79-2.23-1-5.87,2.71-7.58,3.27,1.76,1.38,4.93,2,7.47a5.19,5.19,0,0,0,4.27.08l-1-1.62C530,33.28,528.22,30.53,529,28.8Z"/><path class="cls-220" d="M494.59,38.89c-4.44,2-9,.55-13.27.94-1.16-1.85-.57-3.32-.44-4.76,4.26-1.67,8.52-1,12.78,0,.29,1,.59,2.09.89,3.13A1.28,1.28,0,0,0,494.59,38.89Z"/><path class="cls-221" d="M507.9,21.92c1.71-4.25,3.84-5.21,8.81-4,0,.71.09,1.42.14,2.13l-.1,0a5.29,5.29,0,0,0-.89,0c-.7-.94-1.52-1.28-1.91.12a20.34,20.34,0,0,0-.4,3.69l-1.65-1c-.49-1.13.59-2.94-1.5-3.48-1,1.12-.65,2.4-.64,3.61l0,.06c-1.78,1.72-.43,4.1-1.37,6.24-.68,1.23-2.83.17-3.56,1.75a6.39,6.39,0,0,0-.31.83l-6.55.23L493.77,32c.36-.86,1.14-1,1.93-1.05,2.65-.78,6.18,2.08,8.05-1.94l1.11,0c5.43-.45,1.84-4.51,2.71-6.78Z"/><path class="cls-222" d="M504.49,31.9a6.39,6.39,0,0,1,.31-.83l5.84-.07,1.07,0,0,0c-1,3.78,2.24,1.16,3.12,2.08l.91.9c0,.3,0,.61.07.91s-.21.71-.32,1.07c-1.87.14-3.67,0-4.91-1.64C509.07,32.32,506.89,31.85,504.49,31.9Z"/><path class="cls-223" d="M537.79,31.05c-.06,1.21.05,2.47-1.18,3.24-2-2.14-.72-4.53-.77-6.63,1.72-1.56,2.4,2,3.92.41a1.55,1.55,0,0,1,.83,1.75C539.61,30.12,538.38,29.86,537.79,31.05Z"/><path class="cls-224" d="M493.77,32l4.17.09c.84,2,1.73,4-.76,5.56-2.65-.5-.09-4.58-3.28-4.6C493.86,32.74,493.82,32.39,493.77,32Z"/><path class="cls-224" d="M494.55,38.19c-.3-1-.6-2.08-.89-3.13.1-.33.21-.66.31-1C495.13,35.31,494.76,36.76,494.55,38.19Z"/><path class="cls-225" d="M529,28.8c-.78,1.73,1,4.48-2.12,5.28-.3-2.42-1-4.89.77-7.08a2.8,2.8,0,0,0,.87.1Z"/><path class="cls-226" d="M516.68,22.16c0,3.3-.06,6.61-.1,9.91a7.74,7.74,0,0,0-.83.07L514.82,31c0-.66,0-1.32-.05-2,1.92-2.1.61-4.69,1.05-7A8.17,8.17,0,0,1,516.68,22.16Z"/><path class="cls-227" d="M531.9,35.15c-4.07-1.1-.24-3.39-.38-5.17l1.28,4.17Z"/><path class="cls-228" d="M523.39,24.56c-.32.28-.71.91-1.22,1-1,.25-1.36-.49-1.3-1.41a1.14,1.14,0,0,1,1.3-1.09C522.87,23.09,523.32,23.52,523.39,24.56Z"/><path class="cls-229" d="M528.52,27.1a2.8,2.8,0,0,1-.87-.1c-.23-1-1.46-2,.07-2.91C529.4,24.81,528.5,26.07,528.52,27.1Z"/><path class="cls-219" d="M515.75,32.14a7.74,7.74,0,0,1,.83-.07,1.66,1.66,0,0,1-.8,2l-.91-.9,0-.06Z"/><path class="cls-225" d="M532.72,27.31c-.14.38-.27.77-.51,1.47-.21-.71-.33-1.1-.45-1.49Z"/><path class="cls-187" d="M516.68,22.16a8.17,8.17,0,0,0-.86-.17l0-1.89a5.29,5.29,0,0,1,.89,0C516.73,20.77,516.71,21.46,516.68,22.16Z"/><path class="cls-9" d="M434.81,41.89c1.21-1.26,2.79-.83,4.23-.84q17.4,0,34.79,0a3.7,3.7,0,0,1-.23.85c-11.43-.25-22.7,2.27-34.12,2.09C437.72,44,435.22,45.07,434.81,41.89Z"/><path class="cls-230" d="M507.7,41.06h35.86c.11,2.18-1.21,3.05-3.09,2.93C529.52,43.27,518.56,42.75,507.7,41.06Z"/><path class="cls-231" d="M602.79,9.16l1-.38,2-.52a4.24,4.24,0,0,0,.94,0c1.53,1.61,3.18,3.24,1.06,5.5a2.91,2.91,0,0,1-4,.6C601.53,12.94,601.61,11.14,602.79,9.16Z"/><path class="cls-177" d="M605.71,8.26l-2,.52A1.71,1.71,0,0,1,605.71,8.26Z"/><path class="cls-232" d="M1046.27,348.65a3.09,3.09,0,0,1-3.47,2.54,2.6,2.6,0,0,1-2.5-3.06c.14-2.14,1.5-2.89,3.35-2.66A2.73,2.73,0,0,1,1046.27,348.65Z"/><path class="cls-233" d="M462.73,23.14l1.09,1c-.45,3.37-4.25,7.18,1.57,9.65-1.85,3.06-3.39,3.21-4.89,0,.9-3.86-1.15-7.8.35-11.64Z"/><path class="cls-234" d="M449.78,27.06c2.34,2,.06,5.15,1.77,7.43,3-1.09-1-6.05,3.44-6.25-2.47,2.86-.83,5.85-.29,8.81l-7.73-.2.87-2.78C451.87,32.67,449.16,29.41,449.78,27.06Z"/><path class="cls-234" d="M438,36.86c-.24-1.48,1.22-1.78,1.86-2.65,2-2.13.73-4.62.78-7l.35-.34c1.7,2.14.32,4.86,1.23,7.32,1.53-2.27-.72-5.2,1.71-7-.62,3.3.18,6.5.75,9.71Z"/><path class="cls-235" d="M444.64,36.9c-.57-3.21-1.37-6.41-.75-9.71v0c1.37.52,2.28,2,3.91,2,0,1.65,0,3.3,0,4.95L447,36.85C446.22,38.08,445.43,37.2,444.64,36.9Z"/><path class="cls-236" d="M454.7,37.05c-.54-3-2.18-5.95.29-8.81,4,2.15,1.07,5.86,2,8.7C456.21,37.2,455.5,38.11,454.7,37.05Z"/><path class="cls-237" d="M479.92,32l-.23,4.3-2.39,1.75c-1.51-1.88-.62-4.21-1.64-6L476.77,31Z"/><path class="cls-238" d="M447.84,34.07c0-1.65,0-3.3,0-4.95L447.71,28a1.87,1.87,0,0,0,.18-.8l1.89-.13h0C449.16,29.41,451.87,32.67,447.84,34.07Z"/><path class="cls-239" d="M462.73,23.14l-1.88-1-.19-2C462.71,19.3,462.71,19.3,462.73,23.14Z"/><path class="cls-240" d="M455,25.93c-1.23-.87-1.5-1.55-.84-2.35a.8.8,0,0,1,1.28,0C456.13,24.38,455.66,25,455,25.93Z"/><path class="cls-234" d="M447.71,28l.09,1.13c-1.63,0-2.54-1.44-3.91-2-.05-.35-.1-.69-.14-1l1.86-.24A3.67,3.67,0,0,0,447.71,28Z"/><path class="cls-241" d="M447.84,26l0-1.82,1.92-.13,0,0v2h0Z"/><path class="cls-242" d="M445.61,25.88l-1.86.24,0,0c0-.7,0-1.39-.05-2.09l.08-.06,1.93.26Z"/><path class="cls-243" d="M438.84,26c-.16-1.44.35-2.21,1.93-1.92v2h0Z"/><path class="cls-234" d="M449.79,24l-1.92.13C448.43,23,449.08,23,449.79,24Z"/><path class="cls-234" d="M445.68,24.2l-1.93-.26C444.53,23.07,445.19,23,445.68,24.2Z"/><path class="cls-234" d="M440.78,26v-2C441.81,24.73,441.8,25.38,440.78,26Z"/><path class="cls-234" d="M443.67,24c0,.7,0,1.39.05,2.09C442.73,25.42,442.69,24.72,443.67,24Z"/><path class="cls-234" d="M438.74,29l-1-.7.88-1.39.38.37Z"/><path class="cls-234" d="M447.84,26l2,.1a4,4,0,0,1,0,1l-1.89.13C447.88,26.79,447.86,26.38,447.84,26Z"/><path class="cls-234" d="M449.82,26.07v-2C450.84,24.72,450.83,25.39,449.82,26.07Z"/><path class="cls-234" d="M438.84,26l1.94,0c0,.29.1.59.17.88l-.35.34-1.57,0-.38-.37C438.71,26.61,438.78,26.3,438.84,26Z"/><path class="cls-244" d="M439,27.28l1.57,0c-.05,2.34,1.22,4.83-.78,7-1.67-1.47-.74-3.47-1.08-5.21Z"/><path class="cls-245" d="M503.75,29.05c-1.87,4-5.4,1.16-8.05,1.94-.42-.82-1.2-.86-2-.93v-.93c2.21-3.37,1.47-6.75,0-10.13a7,7,0,0,1,0-.92c2-.15,3,.57,3,2.76,0,1.73-.58,3.62.8,5.15.47,1-.39,2.73,1.69,2.89,1.52-.84,1.14-2.43,1.41-3.76l1.06-.1c.25,1.55-.72,3.72,2,4Z"/><path class="cls-246" d="M476.76,30.07v-1c2.9-.22,1.57-2.68,2.18-4.11l1.32,2.16c1.46-2.81-.92-6.44,2.5-9.64,1.55,4.3.82,8.07.83,12.06Zm5.16-2.25.54.4V20.05h-.54Z"/><path class="cls-247" d="M486.15,18.67a12.39,12.39,0,0,1,.16,10.67C484.09,25.85,485,22.26,486.15,18.67Z"/><path class="cls-248" d="M493.73,29.13v.93c-1.6-.4-3.68,1-4.8-1.28,1.13.3,2.72.74,2.64-1-.16-3.19,1.18-6.58-1.05-9.54l3.25-.19a7,7,0,0,0,0,.92C493.74,22.38,493.73,25.75,493.73,29.13Z"/><path class="cls-249" d="M490.52,18.27c2.23,3,.89,6.35,1.05,9.54.08,1.71-1.51,1.27-2.64,1C490,25.36,488.05,21.48,490.52,18.27Z"/><path class="cls-250" d="M471.73,25.08c-.37,1.28.59,3-1.44,3.91-2.51-1-1-3.35-1.54-5,.72-1.51-.17-3.45,1.68-5.75C471,21.09,471.35,23.08,471.73,25.08Z"/><path class="cls-245" d="M504.86,29l-1.11,0h0c0-1.91.35-4-2-5,.25-1.81-.66-3.78.84-5.61,2.17,1.38.09,4.22,2,5.49.07.41.13.82.19,1.23Z"/><path class="cls-251" d="M500.67,25.12c-.27,1.33.11,2.92-1.41,3.76C497.18,28.72,498,27,497.57,26c.09-1.26.18-2.53.28-3.79,2.43-.49,1.7,2.13,2.84,2.91Z"/><path class="cls-245" d="M500.69,25.11c-1.14-.78-.41-3.4-2.84-2.91.07-1.46-1-3.31,1.59-4.09C501.87,20.06,500.45,22.76,500.69,25.11Z"/><path class="cls-252" d="M478.94,25c-.61,1.43.72,3.89-2.18,4.11.4-2.36-1.72-5.43,1.92-6.89C478.77,23.1,478.85,24,478.94,25Z"/><path class="cls-221" d="M504.85,25.19c-.06-.41-.12-.82-.19-1.23.41-1.9-.77-4.3,1.74-5.57,2.16.5,1.19,2.29,1.5,3.53l-.33.31C505.11,21.79,506.05,24.47,504.85,25.19Z"/><path class="cls-221" d="M501.78,24.08c2.32,1,2,3.06,2,5-2.74-.31-1.77-2.48-2-4C501.73,24.7,501.75,24.39,501.78,24.08Z"/><path class="cls-253" d="M1125.3,413.32a2.87,2.87,0,0,1-3,3.1,3.33,3.33,0,0,1-3.67-3.25c-.11-2.12,1.51-2.76,3.35-2.77S1125.18,411.09,1125.3,413.32Z"/><path class="cls-195" d="M1187.21,422.43c4,2.14,4.68,6.35,1.81,12-1.75,2.19-.1,4.91-1.29,7.48-4.72,1.78-9.78,1.66-14.73,1.41l-3.7-5.69a6.31,6.31,0,0,0,1.87-4.86c-.07-5.05-.08-10.1-.12-15.15,1.65-.46,3.6.65,5-1l.22-.14a2.08,2.08,0,0,1,2,.95c0,.32,0,.64,0,1-.91.25-2.07.25-1.76,2C1179.67,422.63,1183.77,421,1187.21,422.43Z"/><path class="cls-254" d="M1171.05,417.6c0,5,0,10.1.12,15.15a6.31,6.31,0,0,1-1.87,4.86c-2.37-2.23-1.14-6.08-3.5-8.5-2.43,4.33.89,8,.77,13.11-3-2.27-5.85-4.35-5.67-7.17.4-6.07-1.31-12.13-.22-18,2.84-1.53,5.14.82,7.6.25l1,0Z"/><path class="cls-195" d="M1169.33,417.33l-1,0c-1.07-1.94-2.92-1.84-4.75-1.82a9.73,9.73,0,0,1-5.25-1c0-.34,0-.68,0-1,6,1,12.23.69,18,3l-.22.14C1173.81,416.78,1171.43,415.76,1169.33,417.33Z"/><path class="cls-195" d="M1151.23,417.54l2.07-1c1.15,1.9,3.8.11,5,2h-5c-.29,0-.59,0-.89,0l-1,0A8,8,0,0,0,1151.23,417.54Z"/><path class="cls-195" d="M1156.2,414.56l2.09,0C1157.61,415.56,1156.92,415.49,1156.2,414.56Z"/><path class="cls-195" d="M1159.35,438.57v-2.19C1160.26,437.11,1160.29,437.84,1159.35,438.57Z"/><path class="cls-195" d="M1158.25,441.4l.91-.93c0,.26,0,.51.06.77l-.47.16Z"/><path class="cls-195" d="M1159.2,419.5l-.93-1Z"/><path class="cls-195" d="M1153.28,416.52l1-1Z"/><path class="cls-195" d="M1190,418.66c.29.82.23,1.5-.7,1.87l-.45-.08h-.46l-8.07-1.87c0-.32,0-.64,0-1C1183.58,417,1186.67,418.72,1190,418.66Z"/><path class="cls-198" d="M1180.25,417.63c0,.32,0,.64,0,1l-2-.2c0-.32,0-.64,0-1Z"/><path class="cls-255" d="M1151.23,417.54a8,8,0,0,1,.09,1,4.19,4.19,0,0,0,0,1h0l-1.08.92-1.89,0C1148,418.2,1149,417.31,1151.23,417.54Z"/><path class="cls-198" d="M1150.21,420.43l1.08-.92Z"/><path class="cls-198" d="M1151.29,419.51a4.19,4.19,0,0,1,0-1l1,0Z"/><path class="cls-200" d="M1178.27,418.39l2,.2,8.07,1.87c-.38.66-.75,1.32-1.13,2-3.44-1.41-7.54.2-10.7-2.07C1176.2,418.64,1177.36,418.64,1178.27,418.39Z"/><path class="cls-256" d="M257.47,179.43c-2.11-.44-3.47-1.45-3.37-3.64.1-2,1.62-2.88,3.33-2.81a3.08,3.08,0,0,1,3.27,3.46C260.58,178.43,259,179,257.47,179.43Z"/><path class="cls-257" d="M204.91,118.89l1.54-1c-.77-1.64-3.65-.33-3.4-2.82,2.34-2.17,5.89-2.42,7.95-5l0,0c4.65,0,8.41,2.18,11.89,5a13.3,13.3,0,0,0,5,3.1c-.08,1.8-.93,2.81-2.82,2.77-.2-1,.26-2.47-1.41-2.56-1.82.51-1.21,2.74-2.63,3.41l-9.08,1.06c-2.66-.59-.77-4.67-4.16-2.93l-1.66,3c-1.67-3.88-4.19.45-6.24-1C200.92,119.78,203.32,120,204.91,118.89Zm7.77-5.86c-1.25,1-.63,1.76-.29,2.86C213.84,114.73,213.86,113.92,212.68,113Z"/><path class="cls-258" d="M207.78,119.82c3.39-1.74,1.5,2.34,4.16,2.93l9.08-1.06c1.42-.67.81-2.9,2.63-3.41,1.67.09,1.21,1.52,1.41,2.56.45,1.48,2,.74,2.92,1.5-6.18,4.61-12.74,1.91-19,1.32C207.56,122.51,208,121.06,207.78,119.82Z"/><path class="cls-154" d="M238,123.2a1.2,1.2,0,0,1-.06.7l-1.05-.06c-3.18-1.68-4.63-5.94-8.92-6-.2-.61-.49-1.74,0-1.73,3.68,0,7.94-1.81,10.45,2.64-.39,1.42-1.67.93-2.7,1.47C236.71,121.17,239.31,120.89,238,123.2Z"/><path class="cls-152" d="M231,127.92c0,3.32,0,6.64-.08,10a7.77,7.77,0,0,0-1,.07l.07-.11q-.09-3-.17-5.92a3.48,3.48,0,0,0-1.11-3.46C229.33,127.69,230.18,128,231,127.92Z"/><path class="cls-152" d="M223,127.91H215.2c2.6-.56,5.24-2,7.75,0Z"/><path class="cls-152" d="M223,127.91h3.28c-1.44,1.57-2.37,1-3.27,0Z"/><path class="cls-152" d="M180,115.93c1.09,0,2.29-.21,3,1C181.88,116.89,180.69,117.12,180,115.93Z"/><path class="cls-152" d="M183,117l1,1Z"/><path class="cls-154" d="M229.9,138a7.77,7.77,0,0,1,1-.07C230.59,138.51,230.26,138.45,229.9,138Z"/><path class="cls-154" d="M241.88,124.88a4.3,4.3,0,0,0,0-.95C242.73,124.28,242.69,124.59,241.88,124.88Z"/><path class="cls-259" d="M240.09,132.05c-1.47-1.83-1.48-3.09-.55-4.64C241.54,128.65,242.32,129.86,240.09,132.05Z"/><path class="cls-260" d="M211,110c-.87-.34-1.12-.88-.48-2.64.28,1.48.4,2,.51,2.62Z"/><path class="cls-152" d="M182,112l1,1Z"/><path class="cls-261" d="M514.77,29c0,.66,0,1.32.05,2-1.14.72-.19,1.42,0,2.12l0,.06c-.88-.92-4.14,1.7-3.12-2.08.49-.31,1-.58.36-1.72l-.4,1.68-1.07,0a27.13,27.13,0,0,1-.91-7.92l0-.06,2.14-.13,1.65,1C514,25.6,514.36,27.3,514.77,29Z"/><path class="cls-262" d="M504.85,25.19c1.2-.72.26-3.4,2.72-3-.87,2.27,2.72,6.33-2.71,6.78Z"/><path class="cls-263" d="M514.77,29c-.41-1.7-.81-3.4-1.22-5.09a20.34,20.34,0,0,1,.4-3.69c.39-1.4,1.21-1.06,1.91-.12l0,1.89C515.38,24.31,516.69,26.9,514.77,29Z"/><path class="cls-226" d="M509.73,23.08a27.13,27.13,0,0,0,.91,7.92l-5.84.07c.73-1.58,2.88-.52,3.56-1.75C509.3,27.18,508,24.8,509.73,23.08Z"/><path class="cls-226" d="M511.9,22.89l-2.14.13c0-1.21-.32-2.49.64-3.61C512.49,20,511.41,21.76,511.9,22.89Z"/><path class="cls-222" d="M514.84,33.1c-.21-.7-1.16-1.4,0-2.12l.93,1.16Z"/><path class="cls-264" d="M493.73,29.13c0-3.38,0-6.75,0-10.13C495.2,22.38,495.94,25.76,493.73,29.13Z"/><path class="cls-265" d="M481.92,27.82V20.05h.54v8.17Z"/><path class="cls-198" d="M1169.33,417.33c2.1-1.57,4.48-.55,6.74-.71-1.42,1.63-3.37.52-5,1Z"/><path class="cls-266" d="M212.68,113c1.18.89,1.16,1.7-.29,2.86C212.05,114.79,211.43,114,212.68,113Z"/><path class="cls-226" d="M511.71,31l.4-1.68c.68,1.14.13,1.41-.36,1.72Z"/></symbol></defs><g id="Layer_2" data-name="Layer 2"><g id="Layer_1-2" data-name="Layer 1"><use width="1301.03" height="513.78" xlink:href="#map"/></g></g></svg>